M48
; DRILL file {KiCad (5.1.2)-1} date 20/02/2020 11:42:04
; FORMAT={3:3/ absolute / metric / suppress leading zeros}
; #@! TF.CreationDate,2020-02-20T11:42:04-03:00
; #@! TF.GenerationSoftware,Kicad,Pcbnew,(5.1.2)-1
FMAT,2
METRIC,TZ
T1C0.010
T2C0.100
T3C0.010
%
G90
G05
T1
X45174Y20447
T2
X17297Y11557
X18377Y29210
X45359Y32319
X52984Y22860
X54191Y8636
T3
X42316Y47712
X42316Y45212
X51968Y13716
X57048Y13716
X2756Y2730
X7772Y45720
X7772Y43180
X52286Y30544
X57366Y30544
X16599Y16129
X16599Y11049
X47841Y44514
X47841Y41974
X47841Y39433
X47841Y36893
X13614Y45807
X13614Y43307
X42316Y12192
X42316Y7112
X21493Y7610
X26573Y7610
X6828Y32512
X6828Y26012
X11328Y32512
X11328Y26012
X35712Y47712
X35712Y45212
X47904Y16256
X47904Y13716
X47904Y11176
X47904Y8636
X52286Y27432
X57366Y27432
X58699Y49276
X6828Y21336
X6828Y14836
X11328Y21336
X11328Y14836
X47904Y30416
X47904Y27876
X47904Y25336
X47904Y22796
X17932Y36576
X23012Y36576
X13614Y39393
X13614Y36893
X8280Y9144
X10820Y9144
X13360Y9144
X59080Y2604
X2819Y49467
T0
M30
