G04 #@! TF.GenerationSoftware,KiCad,Pcbnew,(5.1.2)-1*
G04 #@! TF.CreationDate,2020-02-19T12:48:27-03:00*
G04 #@! TF.ProjectId,ESP_sensor_node,4553505f-7365-46e7-936f-725f6e6f6465,rev?*
G04 #@! TF.SameCoordinates,PX323d3b0PY6068aa0*
G04 #@! TF.FileFunction,Copper,L1,Top*
G04 #@! TF.FilePolarity,Positive*
%FSLAX46Y46*%
G04 Gerber Fmt 4.6, Leading zero omitted, Abs format (unit mm)*
G04 Created by KiCad (PCBNEW (5.1.2)-1) date 2020-02-19 12:48:27*
%MOMM*%
%LPD*%
G04 APERTURE LIST*
%ADD10O,1.600000X1.600000*%
%ADD11C,1.600000*%
%ADD12R,1.700000X1.700000*%
%ADD13O,1.700000X1.700000*%
%ADD14R,2.500000X1.000000*%
%ADD15C,2.000000*%
%ADD16R,1.600000X1.600000*%
%ADD17R,2.000000X3.800000*%
%ADD18R,2.000000X1.500000*%
%ADD19C,3.000000*%
%ADD20C,2.000000*%
%ADD21C,1.600000*%
%ADD22C,0.254000*%
G04 APERTURE END LIST*
D10*
X16598900Y16129000D03*
D11*
X16598900Y11049000D03*
D12*
X47840900Y44513500D03*
D13*
X47840900Y41973500D03*
X47840900Y39433500D03*
X47840900Y36893500D03*
D14*
X21508400Y25344000D03*
X21508400Y23344000D03*
X21508400Y21344000D03*
X21508400Y19344000D03*
X21508400Y17344000D03*
X21508400Y15344000D03*
X21508400Y13344000D03*
X21508400Y11344000D03*
X36708400Y11344000D03*
X36708400Y13344000D03*
X36708400Y15344000D03*
X36708400Y17344000D03*
X36708400Y19344000D03*
X36708400Y21344000D03*
X36708400Y23344000D03*
X36708400Y25344000D03*
D15*
X11328400Y14836000D03*
X6828400Y14836000D03*
X11328400Y21336000D03*
X6828400Y21336000D03*
X6828400Y32512000D03*
X11328400Y32512000D03*
X6828400Y26012000D03*
X11328400Y26012000D03*
D11*
X13614400Y39393500D03*
D16*
X13614400Y36893500D03*
D11*
X42316400Y45212000D03*
X42316400Y47712000D03*
X35712400Y47712000D03*
D16*
X35712400Y45212000D03*
X13614400Y43307000D03*
D11*
X13614400Y45807000D03*
D17*
X28702400Y44196000D03*
D18*
X22402400Y44196000D03*
X22402400Y41896000D03*
X22402400Y46496000D03*
D12*
X8280400Y9144000D03*
D13*
X10820400Y9144000D03*
X13360400Y9144000D03*
D12*
X7772400Y43180000D03*
D13*
X7772400Y45720000D03*
D11*
X23012400Y36576000D03*
D10*
X17932400Y36576000D03*
X26568400Y6731000D03*
D11*
X21488400Y6731000D03*
X51968400Y13716000D03*
D10*
X57048400Y13716000D03*
X57365900Y27432000D03*
D11*
X52285900Y27432000D03*
D10*
X57365900Y30543500D03*
D11*
X52285900Y30543500D03*
X42316400Y12192000D03*
D10*
X42316400Y7112000D03*
D13*
X47904400Y30416500D03*
X47904400Y27876500D03*
X47904400Y25336500D03*
D12*
X47904400Y22796500D03*
X47904400Y16256000D03*
D13*
X47904400Y13716000D03*
X47904400Y11176000D03*
X47904400Y8636000D03*
D19*
X18376900Y29210000D03*
X17297400Y11557000D03*
X54190900Y8636000D03*
X52984400Y22860000D03*
X45173900Y20447000D03*
X45359320Y32318960D03*
D20*
X34696400Y44196000D02*
X35712400Y45212000D01*
X28702400Y44196000D02*
X34696400Y44196000D01*
X35712400Y45212000D02*
X42316400Y45212000D01*
D21*
X21488400Y11324000D02*
X21508400Y11344000D01*
X21488400Y7620000D02*
X21488400Y11324000D01*
X57365900Y27432000D02*
X57365900Y30543500D01*
X43014900Y44513500D02*
X42316400Y45212000D01*
X47840900Y44513500D02*
X43014900Y44513500D01*
X57365900Y31674870D02*
X50507900Y38532870D01*
X57365900Y30543500D02*
X57365900Y31674870D01*
X50290900Y44513500D02*
X47840900Y44513500D01*
X50507900Y44296500D02*
X50290900Y44513500D01*
X50507900Y38532870D02*
X50507900Y44296500D01*
X47904400Y22796500D02*
X47904400Y16256000D01*
X54508400Y16256000D02*
X57048400Y13716000D01*
X47904400Y16256000D02*
X54508400Y16256000D01*
X17510400Y11344000D02*
X17297400Y11557000D01*
X21508400Y11344000D02*
X17510400Y11344000D01*
X57048400Y27114500D02*
X57365900Y27432000D01*
X57048400Y13716000D02*
X57048400Y27114500D01*
X17805400Y29781500D02*
X18376900Y29210000D01*
X17805400Y33784998D02*
X17805400Y29781500D01*
X20596402Y36576000D02*
X17805400Y33784998D01*
X23012400Y36576000D02*
X20596402Y36576000D01*
X28702400Y44196000D02*
X22402400Y44196000D01*
X17106900Y11557000D02*
X16598900Y11049000D01*
X17297400Y11557000D02*
X17106900Y11557000D01*
X28702400Y40696000D02*
X28702400Y44196000D01*
X28702400Y40453560D02*
X28702400Y40696000D01*
X24824840Y36576000D02*
X28702400Y40453560D01*
X23012400Y36576000D02*
X24824840Y36576000D01*
D20*
X15352400Y45720000D02*
X15392400Y45680000D01*
X7772400Y45720000D02*
X15352400Y45720000D01*
X15392400Y45680000D02*
X17384400Y45680000D01*
X18200400Y46496000D02*
X22402400Y46496000D01*
X17384400Y45680000D02*
X18200400Y46496000D01*
X22402400Y46496000D02*
X22772400Y46496000D01*
X22772400Y46496000D02*
X25044400Y48768000D01*
X34656400Y48768000D02*
X35712400Y47712000D01*
X25044400Y48768000D02*
X34656400Y48768000D01*
X35712400Y47712000D02*
X42316400Y47712000D01*
X24496400Y39076000D02*
X25552400Y40132000D01*
X11328400Y32512000D02*
X11328400Y26012000D01*
X11328400Y26012000D02*
X11328400Y21336000D01*
X11328400Y21336000D02*
X11328400Y14836000D01*
D21*
X36708400Y9244000D02*
X38840400Y7112000D01*
X36708400Y11344000D02*
X36708400Y9244000D01*
X38840400Y7112000D02*
X42316400Y7112000D01*
X46380400Y7112000D02*
X47904400Y8636000D01*
X42316400Y7112000D02*
X46380400Y7112000D01*
X47904400Y8636000D02*
X53047900Y8636000D01*
X53047900Y8636000D02*
X54190900Y8636000D01*
X50507900Y25336500D02*
X47904400Y25336500D01*
X52984400Y22860000D02*
X50507900Y25336500D01*
D20*
X15392400Y39076000D02*
X24496400Y39076000D01*
D21*
X15074900Y39393500D02*
X13614400Y39393500D01*
X15392400Y39076000D02*
X15074900Y39393500D01*
X36708400Y19344000D02*
X44070900Y19344000D01*
X44070900Y19344000D02*
X45173900Y20447000D01*
X51841400Y27876500D02*
X52285900Y27432000D01*
X47904400Y27876500D02*
X51841400Y27876500D01*
X39006400Y21344000D02*
X39014400Y21336000D01*
X36708400Y21344000D02*
X39006400Y21344000D01*
X42189400Y21336000D02*
X43373890Y22520490D01*
X39014400Y21336000D02*
X42189400Y21336000D01*
X52158900Y30416500D02*
X52285900Y30543500D01*
X47904400Y30416500D02*
X52158900Y30416500D01*
X47261780Y30416500D02*
X45359320Y32318960D01*
X47904400Y30416500D02*
X47261780Y30416500D01*
X43373890Y22520490D02*
X43373890Y26584490D01*
X44665900Y27876500D02*
X47904400Y27876500D01*
X43373890Y26584490D02*
X44665900Y27876500D01*
X36708400Y15344000D02*
X43418900Y15344000D01*
X45046900Y13716000D02*
X47904400Y13716000D01*
X43418900Y15344000D02*
X45046900Y13716000D01*
X47904400Y13716000D02*
X51968400Y13716000D01*
X46638819Y41973500D02*
X47840900Y41973500D01*
X46633221Y41973500D02*
X46638819Y41973500D01*
X39773872Y35114151D02*
X46633221Y41973500D01*
X39773872Y25559472D02*
X39773872Y35114151D01*
X39558400Y25344000D02*
X39773872Y25559472D01*
X36708400Y25344000D02*
X39558400Y25344000D01*
X46638819Y39433500D02*
X47840900Y39433500D01*
X41573881Y34368562D02*
X46638819Y39433500D01*
X41573881Y23720481D02*
X41573881Y34368562D01*
X41197400Y23344000D02*
X41573881Y23720481D01*
X36708400Y23344000D02*
X41197400Y23344000D01*
D20*
X15392400Y36576000D02*
X9296400Y36576000D01*
X9296400Y36576000D02*
X6756400Y34036000D01*
X6828400Y33964000D02*
X6828400Y32512000D01*
X6756400Y34036000D02*
X6828400Y33964000D01*
X6828400Y32512000D02*
X6828400Y26012000D01*
D21*
X16801030Y36576000D02*
X15392400Y36576000D01*
X17932400Y36576000D02*
X16801030Y36576000D01*
X21508400Y25344000D02*
X18305900Y25344000D01*
X15392400Y28494498D02*
X15392400Y36576000D01*
X18305900Y25580998D02*
X15392400Y28494498D01*
X18305900Y25344000D02*
X18305900Y25580998D01*
X25036400Y21344000D02*
X21508400Y21344000D01*
X26568400Y7620000D02*
X26568400Y19812000D01*
X26568400Y19812000D02*
X25036400Y21344000D01*
X33752400Y17344000D02*
X36708400Y17344000D01*
X33172400Y16764000D02*
X33752400Y17344000D01*
X33172400Y7556500D02*
X33172400Y16764000D01*
X13360400Y7941919D02*
X16222319Y5080000D01*
X13360400Y9144000D02*
X13360400Y7941919D01*
X16281400Y5080000D02*
X16916400Y4445000D01*
X16222319Y5080000D02*
X16281400Y5080000D01*
X16916400Y4445000D02*
X30060900Y4445000D01*
X30060900Y4445000D02*
X33172400Y7556500D01*
D20*
X7772400Y43180000D02*
X15392400Y43180000D01*
X15392400Y43180000D02*
X16916400Y43180000D01*
X18200400Y41896000D02*
X22402400Y41896000D01*
X16916400Y43180000D02*
X18200400Y41896000D01*
D21*
X8280400Y9144000D02*
X8280400Y10731500D01*
X8280400Y10731500D02*
X9804400Y12255500D01*
X9804400Y12255500D02*
X12852400Y12255500D01*
X17940900Y17344000D02*
X21508400Y17344000D01*
X12852400Y12255500D02*
X17940900Y17344000D01*
D20*
X6828400Y14836000D02*
X6828400Y21336000D01*
X10820400Y7941919D02*
X9482481Y6604000D01*
X10820400Y9144000D02*
X10820400Y7941919D01*
X9482481Y6604000D02*
X6248400Y6604000D01*
X5828401Y13836001D02*
X6828400Y14836000D01*
X5828401Y7023999D02*
X5828401Y13836001D01*
X6248400Y6604000D02*
X5828401Y7023999D01*
D21*
X41164400Y13344000D02*
X36708400Y13344000D01*
X42316400Y12192000D02*
X41164400Y13344000D01*
D22*
G36*
X60790589Y52052624D02*
G01*
X60954250Y52002978D01*
X61105072Y51922362D01*
X61237270Y51813870D01*
X61345762Y51681672D01*
X61426378Y51530850D01*
X61476024Y51367189D01*
X61493400Y51190766D01*
X61493400Y1069734D01*
X61476024Y893311D01*
X61426378Y729650D01*
X61345762Y578828D01*
X61237270Y446630D01*
X61105072Y338138D01*
X60954250Y257522D01*
X60790589Y207876D01*
X60614166Y190500D01*
X1095134Y190500D01*
X918711Y207876D01*
X755050Y257522D01*
X604228Y338138D01*
X472030Y446630D01*
X363538Y578828D01*
X282922Y729650D01*
X233276Y893311D01*
X215900Y1069734D01*
X215900Y2901383D01*
X1020900Y2901383D01*
X1020900Y2559617D01*
X1087575Y2224419D01*
X1218363Y1908669D01*
X1408237Y1624502D01*
X1649902Y1382837D01*
X1934069Y1192963D01*
X2249819Y1062175D01*
X2585017Y995500D01*
X2926783Y995500D01*
X3261981Y1062175D01*
X3577731Y1192963D01*
X3861898Y1382837D01*
X4103563Y1624502D01*
X4293437Y1908669D01*
X4424225Y2224419D01*
X4490900Y2559617D01*
X4490900Y2774383D01*
X57345400Y2774383D01*
X57345400Y2432617D01*
X57412075Y2097419D01*
X57542863Y1781669D01*
X57732737Y1497502D01*
X57974402Y1255837D01*
X58258569Y1065963D01*
X58574319Y935175D01*
X58909517Y868500D01*
X59251283Y868500D01*
X59586481Y935175D01*
X59902231Y1065963D01*
X60186398Y1255837D01*
X60428063Y1497502D01*
X60617937Y1781669D01*
X60748725Y2097419D01*
X60815400Y2432617D01*
X60815400Y2774383D01*
X60748725Y3109581D01*
X60617937Y3425331D01*
X60428063Y3709498D01*
X60186398Y3951163D01*
X59902231Y4141037D01*
X59586481Y4271825D01*
X59251283Y4338500D01*
X58909517Y4338500D01*
X58574319Y4271825D01*
X58258569Y4141037D01*
X57974402Y3951163D01*
X57732737Y3709498D01*
X57542863Y3425331D01*
X57412075Y3109581D01*
X57345400Y2774383D01*
X4490900Y2774383D01*
X4490900Y2901383D01*
X4424225Y3236581D01*
X4293437Y3552331D01*
X4103563Y3836498D01*
X3861898Y4078163D01*
X3577731Y4268037D01*
X3261981Y4398825D01*
X2926783Y4465500D01*
X2585017Y4465500D01*
X2249819Y4398825D01*
X1934069Y4268037D01*
X1649902Y4078163D01*
X1408237Y3836498D01*
X1218363Y3552331D01*
X1087575Y3236581D01*
X1020900Y2901383D01*
X215900Y2901383D01*
X215900Y13836001D01*
X4185490Y13836001D01*
X4193402Y13755672D01*
X4193401Y7104319D01*
X4185490Y7023999D01*
X4193401Y6943680D01*
X4193401Y6943678D01*
X4217058Y6703484D01*
X4310549Y6395285D01*
X4462370Y6111248D01*
X4666687Y5862285D01*
X4729088Y5811074D01*
X5035475Y5504687D01*
X5086686Y5442286D01*
X5335648Y5237969D01*
X5619685Y5086148D01*
X5927884Y4992657D01*
X6168078Y4969000D01*
X6168080Y4969000D01*
X6248399Y4961089D01*
X6328719Y4969000D01*
X9402162Y4969000D01*
X9482481Y4961089D01*
X9562800Y4969000D01*
X9562803Y4969000D01*
X9802997Y4992657D01*
X10111196Y5086148D01*
X10395233Y5237969D01*
X10644195Y5442286D01*
X10695405Y5504686D01*
X11919718Y6728998D01*
X11982114Y6780205D01*
X12186431Y7029167D01*
X12212726Y7078361D01*
X12340793Y6922311D01*
X12395555Y6877369D01*
X15157769Y4115154D01*
X15202711Y4060392D01*
X15421218Y3881068D01*
X15485063Y3846942D01*
X15851845Y3480160D01*
X15896792Y3425392D01*
X16115299Y3246068D01*
X16364592Y3112818D01*
X16635091Y3030763D01*
X16916400Y3003057D01*
X16986895Y3010000D01*
X29990408Y3010000D01*
X30060900Y3003057D01*
X30131392Y3010000D01*
X30342209Y3030764D01*
X30612708Y3112818D01*
X30862001Y3246068D01*
X31080508Y3425392D01*
X31125454Y3480159D01*
X34137256Y6491959D01*
X34192007Y6536892D01*
X34244121Y6600392D01*
X34328726Y6703484D01*
X34371332Y6755399D01*
X34375373Y6762960D01*
X40924491Y6762960D01*
X41019330Y6498119D01*
X41164015Y6256869D01*
X41352986Y6048481D01*
X41578980Y5880963D01*
X41833313Y5760754D01*
X41967361Y5720096D01*
X42189400Y5842085D01*
X42189400Y6985000D01*
X42443400Y6985000D01*
X42443400Y5842085D01*
X42665439Y5720096D01*
X42799487Y5760754D01*
X43053820Y5880963D01*
X43279814Y6048481D01*
X43468785Y6256869D01*
X43613470Y6498119D01*
X43708309Y6762960D01*
X43587024Y6985000D01*
X42443400Y6985000D01*
X42189400Y6985000D01*
X41045776Y6985000D01*
X40924491Y6762960D01*
X34375373Y6762960D01*
X34504582Y7004692D01*
X34586636Y7275191D01*
X34592890Y7338691D01*
X34604940Y7461040D01*
X40924491Y7461040D01*
X41045776Y7239000D01*
X42189400Y7239000D01*
X42189400Y8381915D01*
X42443400Y8381915D01*
X42443400Y7239000D01*
X43587024Y7239000D01*
X43708309Y7461040D01*
X43613470Y7725881D01*
X43468785Y7967131D01*
X43279814Y8175519D01*
X43140063Y8279110D01*
X46462924Y8279110D01*
X46507575Y8131901D01*
X46632759Y7869080D01*
X46806812Y7635731D01*
X47023045Y7440822D01*
X47273148Y7291843D01*
X47547509Y7194519D01*
X47777400Y7315186D01*
X47777400Y8509000D01*
X48031400Y8509000D01*
X48031400Y7315186D01*
X48261291Y7194519D01*
X48535652Y7291843D01*
X48785755Y7440822D01*
X49001988Y7635731D01*
X49176041Y7869080D01*
X49301225Y8131901D01*
X49345876Y8279110D01*
X49224555Y8509000D01*
X48031400Y8509000D01*
X47777400Y8509000D01*
X46584245Y8509000D01*
X46462924Y8279110D01*
X43140063Y8279110D01*
X43053820Y8343037D01*
X42799487Y8463246D01*
X42665439Y8503904D01*
X42443400Y8381915D01*
X42189400Y8381915D01*
X41967361Y8503904D01*
X41833313Y8463246D01*
X41578980Y8343037D01*
X41352986Y8175519D01*
X41164015Y7967131D01*
X41019330Y7725881D01*
X40924491Y7461040D01*
X34604940Y7461040D01*
X34614343Y7556499D01*
X34607400Y7626991D01*
X34607400Y10844000D01*
X34820328Y10844000D01*
X34832588Y10719518D01*
X34868898Y10599820D01*
X34927863Y10489506D01*
X35007215Y10392815D01*
X35103906Y10313463D01*
X35214220Y10254498D01*
X35333918Y10218188D01*
X35458400Y10205928D01*
X36422650Y10209000D01*
X36581400Y10367750D01*
X36581400Y11217000D01*
X36835400Y11217000D01*
X36835400Y10367750D01*
X36994150Y10209000D01*
X37958400Y10205928D01*
X38082882Y10218188D01*
X38202580Y10254498D01*
X38312894Y10313463D01*
X38409585Y10392815D01*
X38488937Y10489506D01*
X38547902Y10599820D01*
X38584212Y10719518D01*
X38596472Y10844000D01*
X38593400Y11058250D01*
X38434650Y11217000D01*
X36835400Y11217000D01*
X36581400Y11217000D01*
X34982150Y11217000D01*
X34823400Y11058250D01*
X34820328Y10844000D01*
X34607400Y10844000D01*
X34607400Y15909000D01*
X34826730Y15909000D01*
X34820328Y15844000D01*
X34820328Y14844000D01*
X34832588Y14719518D01*
X34868898Y14599820D01*
X34927863Y14489506D01*
X35007215Y14392815D01*
X35066696Y14344000D01*
X35007215Y14295185D01*
X34927863Y14198494D01*
X34868898Y14088180D01*
X34832588Y13968482D01*
X34820328Y13844000D01*
X34820328Y12844000D01*
X34832588Y12719518D01*
X34868898Y12599820D01*
X34927863Y12489506D01*
X35007215Y12392815D01*
X35066696Y12344000D01*
X35007215Y12295185D01*
X34927863Y12198494D01*
X34868898Y12088180D01*
X34832588Y11968482D01*
X34820328Y11844000D01*
X34823400Y11629750D01*
X34982150Y11471000D01*
X36581400Y11471000D01*
X36581400Y11491000D01*
X36835400Y11491000D01*
X36835400Y11471000D01*
X38434650Y11471000D01*
X38593400Y11629750D01*
X38596472Y11844000D01*
X38590070Y11909000D01*
X40570005Y11909000D01*
X41201763Y11277241D01*
X41401641Y11077363D01*
X41460544Y11038005D01*
X41515299Y10993069D01*
X41577773Y10959676D01*
X41636673Y10920320D01*
X41702114Y10893214D01*
X41764592Y10859818D01*
X41832386Y10839253D01*
X41897826Y10812147D01*
X41967301Y10798327D01*
X42035090Y10777764D01*
X42105584Y10770821D01*
X42175065Y10757000D01*
X42245907Y10757000D01*
X42316399Y10750057D01*
X42386891Y10757000D01*
X42457735Y10757000D01*
X42527218Y10770821D01*
X42597708Y10777764D01*
X42665494Y10798326D01*
X42734974Y10812147D01*
X42800417Y10839254D01*
X42868207Y10859818D01*
X42930682Y10893212D01*
X42996127Y10920320D01*
X43055031Y10959679D01*
X43117500Y10993069D01*
X43172251Y11038002D01*
X43231159Y11077363D01*
X43281256Y11127460D01*
X43336007Y11172393D01*
X43380940Y11227144D01*
X43431037Y11277241D01*
X43470398Y11336149D01*
X43515331Y11390900D01*
X43548721Y11453369D01*
X43588080Y11512273D01*
X43615188Y11577718D01*
X43648582Y11640193D01*
X43669146Y11707983D01*
X43696253Y11773426D01*
X43710074Y11842906D01*
X43730636Y11910692D01*
X43737579Y11981182D01*
X43751400Y12050665D01*
X43751400Y12121509D01*
X43758343Y12192001D01*
X43751400Y12262493D01*
X43751400Y12333335D01*
X43737579Y12402816D01*
X43730636Y12473310D01*
X43710073Y12541099D01*
X43696253Y12610574D01*
X43669147Y12676014D01*
X43648582Y12743808D01*
X43615186Y12806286D01*
X43588080Y12871727D01*
X43548724Y12930627D01*
X43515331Y12993101D01*
X43470395Y13047856D01*
X43431037Y13106759D01*
X43231159Y13306637D01*
X42628795Y13909000D01*
X42824505Y13909000D01*
X43982350Y12751154D01*
X44027292Y12696392D01*
X44245799Y12517068D01*
X44410838Y12428853D01*
X44495092Y12383818D01*
X44765591Y12301763D01*
X45046900Y12274057D01*
X45117395Y12281000D01*
X46910028Y12281000D01*
X46849266Y12231134D01*
X46663694Y12005014D01*
X46525801Y11747034D01*
X46440887Y11467111D01*
X46412215Y11176000D01*
X46440887Y10884889D01*
X46525801Y10604966D01*
X46663694Y10346986D01*
X46849266Y10120866D01*
X47075386Y9935294D01*
X47139923Y9900799D01*
X47023045Y9831178D01*
X46806812Y9636269D01*
X46632759Y9402920D01*
X46507575Y9140099D01*
X46462924Y8992890D01*
X46584245Y8763000D01*
X47777400Y8763000D01*
X47777400Y8783000D01*
X48031400Y8783000D01*
X48031400Y8763000D01*
X49224555Y8763000D01*
X49345876Y8992890D01*
X49301225Y9140099D01*
X49176041Y9402920D01*
X49001988Y9636269D01*
X48785755Y9831178D01*
X48668877Y9900799D01*
X48733414Y9935294D01*
X48959534Y10120866D01*
X49145106Y10346986D01*
X49282999Y10604966D01*
X49367913Y10884889D01*
X49396585Y11176000D01*
X49367913Y11467111D01*
X49282999Y11747034D01*
X49145106Y12005014D01*
X48959534Y12231134D01*
X48898772Y12281000D01*
X52109735Y12281000D01*
X52179217Y12294821D01*
X52249709Y12301764D01*
X52317497Y12322327D01*
X52386974Y12336147D01*
X52452414Y12363253D01*
X52520208Y12383818D01*
X52582688Y12417214D01*
X52648127Y12444320D01*
X52707022Y12483672D01*
X52769501Y12517068D01*
X52824263Y12562010D01*
X52883159Y12601363D01*
X52933246Y12651450D01*
X52988008Y12696392D01*
X53032950Y12751154D01*
X53083037Y12801241D01*
X53122390Y12860137D01*
X53167332Y12914899D01*
X53200728Y12977378D01*
X53240080Y13036273D01*
X53267186Y13101712D01*
X53300582Y13164192D01*
X53321147Y13231986D01*
X53348253Y13297426D01*
X53362073Y13366903D01*
X53382636Y13434691D01*
X53389579Y13505183D01*
X53403400Y13574665D01*
X53403400Y13645509D01*
X53410343Y13716000D01*
X53403400Y13786492D01*
X53403400Y13857335D01*
X53389579Y13926817D01*
X53382636Y13997309D01*
X53362073Y14065097D01*
X53348253Y14134574D01*
X53321147Y14200014D01*
X53300582Y14267808D01*
X53267186Y14330288D01*
X53240080Y14395727D01*
X53200728Y14454622D01*
X53167332Y14517101D01*
X53122390Y14571863D01*
X53083037Y14630759D01*
X53032950Y14680846D01*
X52988008Y14735608D01*
X52933246Y14780550D01*
X52892796Y14821000D01*
X53914005Y14821000D01*
X55983854Y12751149D01*
X56028792Y12696392D01*
X56215784Y12542932D01*
X56247299Y12517068D01*
X56496592Y12383818D01*
X56653744Y12336147D01*
X56767090Y12301764D01*
X57048399Y12274057D01*
X57048400Y12274057D01*
X57118892Y12281000D01*
X57329709Y12301764D01*
X57600208Y12383818D01*
X57849501Y12517068D01*
X58068008Y12696392D01*
X58247332Y12914899D01*
X58380582Y13164192D01*
X58462636Y13434691D01*
X58490343Y13716000D01*
X58490343Y13716001D01*
X58483400Y13786493D01*
X58483400Y26531674D01*
X58564832Y26630899D01*
X58698082Y26880192D01*
X58741384Y27022941D01*
X58780137Y27150691D01*
X58807843Y27432000D01*
X58800900Y27502495D01*
X58800900Y30473009D01*
X58807843Y30543500D01*
X58800900Y30613992D01*
X58800900Y31604375D01*
X58807843Y31674870D01*
X58780137Y31956179D01*
X58698082Y32226678D01*
X58592259Y32424658D01*
X58564832Y32475971D01*
X58385508Y32694478D01*
X58330746Y32739420D01*
X51942900Y39127265D01*
X51942900Y44226009D01*
X51949843Y44296501D01*
X51922136Y44577809D01*
X51886131Y44696502D01*
X51840082Y44848308D01*
X51706832Y45097601D01*
X51527508Y45316108D01*
X51472744Y45361051D01*
X51355453Y45478342D01*
X51310508Y45533108D01*
X51092001Y45712432D01*
X50842708Y45845682D01*
X50572209Y45927736D01*
X50361392Y45948500D01*
X50290900Y45955443D01*
X50220408Y45948500D01*
X48943503Y45948500D01*
X48935080Y45953002D01*
X48815382Y45989312D01*
X48690900Y46001572D01*
X46990900Y46001572D01*
X46866418Y45989312D01*
X46746720Y45953002D01*
X46738297Y45948500D01*
X43776640Y45948500D01*
X43682431Y46124752D01*
X43478114Y46373714D01*
X43229152Y46578031D01*
X43107177Y46643228D01*
X43129497Y46719298D01*
X42316400Y47532395D01*
X42302258Y47518252D01*
X42122653Y47697857D01*
X42136795Y47712000D01*
X42496005Y47712000D01*
X43309102Y46898903D01*
X43553071Y46970486D01*
X43673971Y47225996D01*
X43742700Y47500184D01*
X43756617Y47782512D01*
X43715187Y48062130D01*
X43620003Y48328292D01*
X43553071Y48453514D01*
X43309102Y48525097D01*
X42496005Y47712000D01*
X42136795Y47712000D01*
X41323698Y48525097D01*
X41079729Y48453514D01*
X40958829Y48198004D01*
X40890100Y47923816D01*
X40876183Y47641488D01*
X40917613Y47361870D01*
X41012797Y47095708D01*
X41079729Y46970486D01*
X41323696Y46898903D01*
X41271793Y46847000D01*
X36757007Y46847000D01*
X36705104Y46898903D01*
X36949071Y46970486D01*
X37069971Y47225996D01*
X37138700Y47500184D01*
X37152617Y47782512D01*
X37111187Y48062130D01*
X37016003Y48328292D01*
X36949071Y48453514D01*
X36705102Y48525097D01*
X35892005Y47712000D01*
X35906148Y47697857D01*
X35726543Y47518252D01*
X35712400Y47532395D01*
X34899303Y46719298D01*
X34919615Y46650072D01*
X34912400Y46650072D01*
X34787918Y46637812D01*
X34668220Y46601502D01*
X34557906Y46542537D01*
X34461215Y46463185D01*
X34381863Y46366494D01*
X34322898Y46256180D01*
X34286588Y46136482D01*
X34282430Y46094268D01*
X34019162Y45831000D01*
X30340472Y45831000D01*
X30340472Y46096000D01*
X30328212Y46220482D01*
X30291902Y46340180D01*
X30232937Y46450494D01*
X30153585Y46547185D01*
X30056894Y46626537D01*
X29946580Y46685502D01*
X29826882Y46721812D01*
X29702400Y46734072D01*
X27702400Y46734072D01*
X27577918Y46721812D01*
X27458220Y46685502D01*
X27347906Y46626537D01*
X27251215Y46547185D01*
X27171863Y46450494D01*
X27112898Y46340180D01*
X27076588Y46220482D01*
X27064328Y46096000D01*
X27064328Y45631000D01*
X24029146Y45631000D01*
X24040472Y45746000D01*
X24037400Y46210250D01*
X23878650Y46369000D01*
X22529400Y46369000D01*
X22529400Y46349000D01*
X22275400Y46349000D01*
X22275400Y46369000D01*
X20926150Y46369000D01*
X20767400Y46210250D01*
X20764328Y45746000D01*
X20776588Y45621518D01*
X20812898Y45501820D01*
X20871863Y45391506D01*
X20909209Y45346000D01*
X20871863Y45300494D01*
X20812898Y45190180D01*
X20776588Y45070482D01*
X20764328Y44946000D01*
X20764328Y43531000D01*
X18877639Y43531000D01*
X18129324Y44279314D01*
X18078114Y44341714D01*
X17829152Y44546031D01*
X17545115Y44697852D01*
X17236916Y44791343D01*
X16996722Y44815000D01*
X16996719Y44815000D01*
X16916400Y44822911D01*
X16836081Y44815000D01*
X14660747Y44815000D01*
X14723377Y44877630D01*
X14607104Y44993903D01*
X14851071Y45065486D01*
X14971971Y45320996D01*
X15040700Y45595184D01*
X15054617Y45877512D01*
X15013187Y46157130D01*
X14918003Y46423292D01*
X14851071Y46548514D01*
X14607102Y46620097D01*
X13794005Y45807000D01*
X13808148Y45792857D01*
X13628543Y45613252D01*
X13614400Y45627395D01*
X13600258Y45613252D01*
X13420653Y45792857D01*
X13434795Y45807000D01*
X12621698Y46620097D01*
X12377729Y46548514D01*
X12256829Y46293004D01*
X12188100Y46018816D01*
X12174183Y45736488D01*
X12215613Y45456870D01*
X12310797Y45190708D01*
X12377729Y45065486D01*
X12621696Y44993903D01*
X12505423Y44877630D01*
X12568053Y44815000D01*
X8941048Y44815000D01*
X9044041Y44953080D01*
X9169225Y45215901D01*
X9213876Y45363110D01*
X9092555Y45593000D01*
X7899400Y45593000D01*
X7899400Y45573000D01*
X7645400Y45573000D01*
X7645400Y45593000D01*
X6452245Y45593000D01*
X6330924Y45363110D01*
X6375575Y45215901D01*
X6500759Y44953080D01*
X6674812Y44719731D01*
X6758866Y44643966D01*
X6678220Y44619502D01*
X6567906Y44560537D01*
X6471215Y44481185D01*
X6391863Y44384494D01*
X6332898Y44274180D01*
X6296588Y44154482D01*
X6284328Y44030000D01*
X6284328Y43864429D01*
X6254548Y43808715D01*
X6161057Y43500516D01*
X6129489Y43180000D01*
X6161057Y42859484D01*
X6254548Y42551285D01*
X6284328Y42495571D01*
X6284328Y42330000D01*
X6296588Y42205518D01*
X6332898Y42085820D01*
X6391863Y41975506D01*
X6471215Y41878815D01*
X6567906Y41799463D01*
X6678220Y41740498D01*
X6797918Y41704188D01*
X6922400Y41691928D01*
X7087971Y41691928D01*
X7143685Y41662148D01*
X7451884Y41568657D01*
X7692078Y41545000D01*
X16239162Y41545000D01*
X16987479Y40796682D01*
X17038686Y40734286D01*
X17287648Y40529969D01*
X17571685Y40378148D01*
X17879884Y40284657D01*
X18120078Y40261000D01*
X18120080Y40261000D01*
X18200399Y40253089D01*
X18280719Y40261000D01*
X22482722Y40261000D01*
X22722916Y40284657D01*
X23031115Y40378148D01*
X23273916Y40507928D01*
X23402400Y40507928D01*
X23526882Y40520188D01*
X23646580Y40556498D01*
X23756894Y40615463D01*
X23853585Y40694815D01*
X23932937Y40791506D01*
X23991902Y40901820D01*
X24028212Y41021518D01*
X24040472Y41146000D01*
X24040472Y41846869D01*
X24045311Y41896000D01*
X24040472Y41945131D01*
X24040472Y42646000D01*
X24029146Y42761000D01*
X27064328Y42761000D01*
X27064328Y42296000D01*
X27067401Y42264803D01*
X27067400Y40376322D01*
X27067400Y40287869D01*
X24790532Y38011000D01*
X20666894Y38011000D01*
X20596402Y38017943D01*
X20525910Y38011000D01*
X20315093Y37990236D01*
X20044594Y37908182D01*
X19795301Y37774932D01*
X19576794Y37595608D01*
X19531852Y37540846D01*
X19213807Y37222801D01*
X19131332Y37377101D01*
X18952008Y37595608D01*
X18733501Y37774932D01*
X18484208Y37908182D01*
X18213709Y37990236D01*
X18002892Y38011000D01*
X16176120Y38011000D01*
X16021115Y38093852D01*
X15712916Y38187343D01*
X15472722Y38211000D01*
X14784780Y38211000D01*
X14768894Y38224037D01*
X14658580Y38283002D01*
X14538882Y38319312D01*
X14414400Y38331572D01*
X14407185Y38331572D01*
X14427497Y38400798D01*
X13614400Y39213895D01*
X12801303Y38400798D01*
X12821615Y38331572D01*
X12814400Y38331572D01*
X12689918Y38319312D01*
X12570220Y38283002D01*
X12459906Y38224037D01*
X12444020Y38211000D01*
X9376719Y38211000D01*
X9296399Y38218911D01*
X9216080Y38211000D01*
X9216078Y38211000D01*
X8975884Y38187343D01*
X8667685Y38093852D01*
X8383648Y37942031D01*
X8134686Y37737714D01*
X8083480Y37675319D01*
X5657078Y35248916D01*
X5594687Y35197713D01*
X5484396Y35063323D01*
X5390370Y34948752D01*
X5238548Y34664714D01*
X5145058Y34356516D01*
X5113489Y34036000D01*
X5145058Y33715484D01*
X5193400Y33556120D01*
X5193400Y32592321D01*
X5193401Y26173038D01*
X5193400Y26173033D01*
X5193400Y25850967D01*
X5209148Y25771797D01*
X5217058Y25691484D01*
X5240484Y25614258D01*
X5256232Y25535088D01*
X5287122Y25460512D01*
X5310549Y25383285D01*
X5348592Y25312111D01*
X5379482Y25237537D01*
X5424326Y25170423D01*
X5462370Y25099248D01*
X5513570Y25036861D01*
X5558413Y24969748D01*
X5615485Y24912676D01*
X5666687Y24850286D01*
X5729077Y24799084D01*
X5786148Y24742013D01*
X5853260Y24697170D01*
X5915649Y24645969D01*
X5986827Y24607924D01*
X6053937Y24563082D01*
X6128507Y24532194D01*
X6199686Y24494148D01*
X6276918Y24470720D01*
X6351488Y24439832D01*
X6430652Y24424085D01*
X6507885Y24400657D01*
X6588206Y24392746D01*
X6667367Y24377000D01*
X6748078Y24377000D01*
X6828400Y24369089D01*
X6908722Y24377000D01*
X6989433Y24377000D01*
X7068593Y24392746D01*
X7148916Y24400657D01*
X7226151Y24424086D01*
X7305312Y24439832D01*
X7379879Y24470719D01*
X7457115Y24494148D01*
X7528298Y24532196D01*
X7602863Y24563082D01*
X7669969Y24607921D01*
X7741152Y24645969D01*
X7803546Y24697174D01*
X7870652Y24742013D01*
X7927719Y24799080D01*
X7990114Y24850286D01*
X8011698Y24876587D01*
X10372592Y24876587D01*
X10468356Y24612186D01*
X10757971Y24471296D01*
X11069508Y24389616D01*
X11390995Y24370282D01*
X11710075Y24414039D01*
X12014488Y24519205D01*
X12188444Y24612186D01*
X12284208Y24876587D01*
X11328400Y25832395D01*
X10372592Y24876587D01*
X8011698Y24876587D01*
X8041320Y24912681D01*
X8098387Y24969748D01*
X8143226Y25036854D01*
X8194431Y25099248D01*
X8232479Y25170431D01*
X8277318Y25237537D01*
X8308204Y25312102D01*
X8346252Y25383285D01*
X8369681Y25460521D01*
X8400568Y25535088D01*
X8416314Y25614249D01*
X8439743Y25691484D01*
X8447654Y25771807D01*
X8463400Y25850967D01*
X8463400Y25949405D01*
X9686682Y25949405D01*
X9730439Y25630325D01*
X9835605Y25325912D01*
X9928586Y25151956D01*
X10192987Y25056192D01*
X11148795Y26012000D01*
X11508005Y26012000D01*
X12463813Y25056192D01*
X12728214Y25151956D01*
X12869104Y25441571D01*
X12950784Y25753108D01*
X12970118Y26074595D01*
X12926361Y26393675D01*
X12821195Y26698088D01*
X12728214Y26872044D01*
X12463813Y26967808D01*
X11508005Y26012000D01*
X11148795Y26012000D01*
X10192987Y26967808D01*
X9928586Y26872044D01*
X9787696Y26582429D01*
X9706016Y26270892D01*
X9686682Y25949405D01*
X8463400Y25949405D01*
X8463400Y27147413D01*
X10372592Y27147413D01*
X11328400Y26191605D01*
X12284208Y27147413D01*
X12188444Y27411814D01*
X11898829Y27552704D01*
X11587292Y27634384D01*
X11265805Y27653718D01*
X10946725Y27609961D01*
X10642312Y27504795D01*
X10468356Y27411814D01*
X10372592Y27147413D01*
X8463400Y27147413D01*
X8463400Y31376587D01*
X10372592Y31376587D01*
X10468356Y31112186D01*
X10757971Y30971296D01*
X11069508Y30889616D01*
X11390995Y30870282D01*
X11710075Y30914039D01*
X12014488Y31019205D01*
X12188444Y31112186D01*
X12284208Y31376587D01*
X11328400Y32332395D01*
X10372592Y31376587D01*
X8463400Y31376587D01*
X8463400Y32449405D01*
X9686682Y32449405D01*
X9730439Y32130325D01*
X9835605Y31825912D01*
X9928586Y31651956D01*
X10192987Y31556192D01*
X11148795Y32512000D01*
X11508005Y32512000D01*
X12463813Y31556192D01*
X12728214Y31651956D01*
X12869104Y31941571D01*
X12950784Y32253108D01*
X12970118Y32574595D01*
X12926361Y32893675D01*
X12821195Y33198088D01*
X12728214Y33372044D01*
X12463813Y33467808D01*
X11508005Y32512000D01*
X11148795Y32512000D01*
X10192987Y33467808D01*
X9928586Y33372044D01*
X9787696Y33082429D01*
X9706016Y32770892D01*
X9686682Y32449405D01*
X8463400Y32449405D01*
X8463400Y33430762D01*
X8680051Y33647413D01*
X10372592Y33647413D01*
X11328400Y32691605D01*
X12284208Y33647413D01*
X12188444Y33911814D01*
X11898829Y34052704D01*
X11587292Y34134384D01*
X11265805Y34153718D01*
X10946725Y34109961D01*
X10642312Y34004795D01*
X10468356Y33911814D01*
X10372592Y33647413D01*
X8680051Y33647413D01*
X9973639Y34941000D01*
X13957401Y34941000D01*
X13957400Y28564990D01*
X13950457Y28494498D01*
X13962989Y28367264D01*
X13978164Y28213190D01*
X14060218Y27942691D01*
X14193468Y27693398D01*
X14372792Y27474891D01*
X14427555Y27429948D01*
X16933837Y24923665D01*
X16973718Y24792192D01*
X17106968Y24542899D01*
X17286292Y24324392D01*
X17465845Y24177037D01*
X17504799Y24145068D01*
X17754092Y24011818D01*
X18024591Y23929764D01*
X18305900Y23902057D01*
X18376392Y23909000D01*
X19626730Y23909000D01*
X19620328Y23844000D01*
X19620328Y22844000D01*
X19632588Y22719518D01*
X19668898Y22599820D01*
X19727863Y22489506D01*
X19807215Y22392815D01*
X19866696Y22344000D01*
X19807215Y22295185D01*
X19727863Y22198494D01*
X19668898Y22088180D01*
X19632588Y21968482D01*
X19620328Y21844000D01*
X19620328Y20844000D01*
X19632588Y20719518D01*
X19668898Y20599820D01*
X19727863Y20489506D01*
X19807215Y20392815D01*
X19866696Y20344000D01*
X19807215Y20295185D01*
X19727863Y20198494D01*
X19668898Y20088180D01*
X19632588Y19968482D01*
X19620328Y19844000D01*
X19620328Y18844000D01*
X19626730Y18779000D01*
X18011395Y18779000D01*
X17940900Y18785943D01*
X17659591Y18758237D01*
X17389092Y18676182D01*
X17139799Y18542932D01*
X16921292Y18363608D01*
X16876350Y18308846D01*
X16007551Y17440047D01*
X15797799Y17327932D01*
X15579292Y17148608D01*
X15399968Y16930101D01*
X15287853Y16720349D01*
X12881907Y14314402D01*
X12950784Y14577108D01*
X12970118Y14898595D01*
X12926361Y15217675D01*
X12821195Y15522088D01*
X12728214Y15696044D01*
X12463813Y15791808D01*
X11508005Y14836000D01*
X11522148Y14821857D01*
X11342543Y14642252D01*
X11328400Y14656395D01*
X11314258Y14642252D01*
X11134653Y14821857D01*
X11148795Y14836000D01*
X10192987Y15791808D01*
X9928586Y15696044D01*
X9787696Y15406429D01*
X9706016Y15094892D01*
X9686682Y14773405D01*
X9730439Y14454325D01*
X9835605Y14149912D01*
X9928586Y13975956D01*
X10192985Y13880193D01*
X10077317Y13764525D01*
X10151342Y13690500D01*
X9874891Y13690500D01*
X9804399Y13697443D01*
X9523090Y13669736D01*
X9443224Y13645509D01*
X9252592Y13587682D01*
X9003299Y13454432D01*
X8784792Y13275108D01*
X8739855Y13220352D01*
X7463401Y11943896D01*
X7463401Y13158763D01*
X7870649Y13566011D01*
X7870652Y13566013D01*
X7927720Y13623081D01*
X7990114Y13674286D01*
X8041320Y13736681D01*
X8098387Y13793748D01*
X8143226Y13860854D01*
X8194431Y13923248D01*
X8232479Y13994431D01*
X8277318Y14061537D01*
X8308204Y14136102D01*
X8346252Y14207285D01*
X8369681Y14284521D01*
X8400568Y14359088D01*
X8416314Y14438249D01*
X8439743Y14515484D01*
X8447654Y14595807D01*
X8463400Y14674967D01*
X8463400Y14755680D01*
X8471311Y14835999D01*
X8463400Y14916319D01*
X8463400Y15971413D01*
X10372592Y15971413D01*
X11328400Y15015605D01*
X12284208Y15971413D01*
X12188444Y16235814D01*
X11898829Y16376704D01*
X11587292Y16458384D01*
X11265805Y16477718D01*
X10946725Y16433961D01*
X10642312Y16328795D01*
X10468356Y16235814D01*
X10372592Y15971413D01*
X8463400Y15971413D01*
X8463400Y20200587D01*
X10372592Y20200587D01*
X10468356Y19936186D01*
X10757971Y19795296D01*
X11069508Y19713616D01*
X11390995Y19694282D01*
X11710075Y19738039D01*
X12014488Y19843205D01*
X12188444Y19936186D01*
X12284208Y20200587D01*
X11328400Y21156395D01*
X10372592Y20200587D01*
X8463400Y20200587D01*
X8463400Y21273405D01*
X9686682Y21273405D01*
X9730439Y20954325D01*
X9835605Y20649912D01*
X9928586Y20475956D01*
X10192987Y20380192D01*
X11148795Y21336000D01*
X11508005Y21336000D01*
X12463813Y20380192D01*
X12728214Y20475956D01*
X12869104Y20765571D01*
X12950784Y21077108D01*
X12970118Y21398595D01*
X12926361Y21717675D01*
X12821195Y22022088D01*
X12728214Y22196044D01*
X12463813Y22291808D01*
X11508005Y21336000D01*
X11148795Y21336000D01*
X10192987Y22291808D01*
X9928586Y22196044D01*
X9787696Y21906429D01*
X9706016Y21594892D01*
X9686682Y21273405D01*
X8463400Y21273405D01*
X8463400Y21497033D01*
X8447654Y21576193D01*
X8439743Y21656516D01*
X8416314Y21733751D01*
X8400568Y21812912D01*
X8369681Y21887479D01*
X8346252Y21964715D01*
X8308204Y22035898D01*
X8277318Y22110463D01*
X8232479Y22177569D01*
X8194431Y22248752D01*
X8143226Y22311146D01*
X8098387Y22378252D01*
X8041320Y22435319D01*
X8011699Y22471413D01*
X10372592Y22471413D01*
X11328400Y21515605D01*
X12284208Y22471413D01*
X12188444Y22735814D01*
X11898829Y22876704D01*
X11587292Y22958384D01*
X11265805Y22977718D01*
X10946725Y22933961D01*
X10642312Y22828795D01*
X10468356Y22735814D01*
X10372592Y22471413D01*
X8011699Y22471413D01*
X7990114Y22497714D01*
X7927719Y22548920D01*
X7870652Y22605987D01*
X7803546Y22650826D01*
X7741152Y22702031D01*
X7669969Y22740079D01*
X7602863Y22784918D01*
X7528298Y22815804D01*
X7457115Y22853852D01*
X7379879Y22877281D01*
X7305312Y22908168D01*
X7226151Y22923914D01*
X7148916Y22947343D01*
X7068593Y22955254D01*
X6989433Y22971000D01*
X6908722Y22971000D01*
X6828400Y22978911D01*
X6748078Y22971000D01*
X6667367Y22971000D01*
X6588206Y22955254D01*
X6507885Y22947343D01*
X6430652Y22923915D01*
X6351488Y22908168D01*
X6276918Y22877280D01*
X6199686Y22853852D01*
X6128507Y22815806D01*
X6053937Y22784918D01*
X5986827Y22740076D01*
X5915649Y22702031D01*
X5853260Y22650830D01*
X5786148Y22605987D01*
X5729077Y22548916D01*
X5666687Y22497714D01*
X5615485Y22435324D01*
X5558413Y22378252D01*
X5513570Y22311139D01*
X5462370Y22248752D01*
X5424326Y22177577D01*
X5379482Y22110463D01*
X5348592Y22035889D01*
X5310549Y21964715D01*
X5287122Y21887488D01*
X5256232Y21812912D01*
X5240484Y21733742D01*
X5217058Y21656516D01*
X5209148Y21576203D01*
X5193400Y21497033D01*
X5193400Y21174967D01*
X5193401Y21174962D01*
X5193400Y15513238D01*
X4729083Y15048921D01*
X4666688Y14997715D01*
X4468055Y14755679D01*
X4462371Y14748753D01*
X4310549Y14464715D01*
X4217059Y14156517D01*
X4185490Y13836001D01*
X215900Y13836001D01*
X215900Y39322988D01*
X12174183Y39322988D01*
X12215613Y39043370D01*
X12310797Y38777208D01*
X12377729Y38651986D01*
X12621698Y38580403D01*
X13434795Y39393500D01*
X13794005Y39393500D01*
X14607102Y38580403D01*
X14851071Y38651986D01*
X14971971Y38907496D01*
X15040700Y39181684D01*
X15054617Y39464012D01*
X15013187Y39743630D01*
X14918003Y40009792D01*
X14851071Y40135014D01*
X14607102Y40206597D01*
X13794005Y39393500D01*
X13434795Y39393500D01*
X12621698Y40206597D01*
X12377729Y40135014D01*
X12256829Y39879504D01*
X12188100Y39605316D01*
X12174183Y39322988D01*
X215900Y39322988D01*
X215900Y40386202D01*
X12801303Y40386202D01*
X13614400Y39573105D01*
X14427497Y40386202D01*
X14355914Y40630171D01*
X14100404Y40751071D01*
X13826216Y40819800D01*
X13543888Y40833717D01*
X13264270Y40792287D01*
X12998108Y40697103D01*
X12872886Y40630171D01*
X12801303Y40386202D01*
X215900Y40386202D01*
X215900Y46076890D01*
X6330924Y46076890D01*
X6452245Y45847000D01*
X7645400Y45847000D01*
X7645400Y47040814D01*
X7899400Y47040814D01*
X7899400Y45847000D01*
X9092555Y45847000D01*
X9213876Y46076890D01*
X9169225Y46224099D01*
X9044041Y46486920D01*
X8869988Y46720269D01*
X8781865Y46799702D01*
X12801303Y46799702D01*
X13614400Y45986605D01*
X14427497Y46799702D01*
X14355914Y47043671D01*
X14100404Y47164571D01*
X13826216Y47233300D01*
X13568577Y47246000D01*
X20764328Y47246000D01*
X20767400Y46781750D01*
X20926150Y46623000D01*
X22275400Y46623000D01*
X22275400Y47722250D01*
X22529400Y47722250D01*
X22529400Y46623000D01*
X23878650Y46623000D01*
X24037400Y46781750D01*
X24040472Y47246000D01*
X24028212Y47370482D01*
X23991902Y47490180D01*
X23932937Y47600494D01*
X23899295Y47641488D01*
X34272183Y47641488D01*
X34313613Y47361870D01*
X34408797Y47095708D01*
X34475729Y46970486D01*
X34719698Y46898903D01*
X35532795Y47712000D01*
X34719698Y48525097D01*
X34475729Y48453514D01*
X34354829Y48198004D01*
X34286100Y47923816D01*
X34272183Y47641488D01*
X23899295Y47641488D01*
X23853585Y47697185D01*
X23756894Y47776537D01*
X23646580Y47835502D01*
X23526882Y47871812D01*
X23402400Y47884072D01*
X22688150Y47881000D01*
X22529400Y47722250D01*
X22275400Y47722250D01*
X22116650Y47881000D01*
X21402400Y47884072D01*
X21277918Y47871812D01*
X21158220Y47835502D01*
X21047906Y47776537D01*
X20951215Y47697185D01*
X20871863Y47600494D01*
X20812898Y47490180D01*
X20776588Y47370482D01*
X20764328Y47246000D01*
X13568577Y47246000D01*
X13543888Y47247217D01*
X13264270Y47205787D01*
X12998108Y47110603D01*
X12872886Y47043671D01*
X12801303Y46799702D01*
X8781865Y46799702D01*
X8653755Y46915178D01*
X8403652Y47064157D01*
X8129291Y47161481D01*
X7899400Y47040814D01*
X7645400Y47040814D01*
X7415509Y47161481D01*
X7141148Y47064157D01*
X6891045Y46915178D01*
X6674812Y46720269D01*
X6500759Y46486920D01*
X6375575Y46224099D01*
X6330924Y46076890D01*
X215900Y46076890D01*
X215900Y49637383D01*
X1084400Y49637383D01*
X1084400Y49295617D01*
X1151075Y48960419D01*
X1281863Y48644669D01*
X1471737Y48360502D01*
X1713402Y48118837D01*
X1997569Y47928963D01*
X2313319Y47798175D01*
X2648517Y47731500D01*
X2990283Y47731500D01*
X3325481Y47798175D01*
X3641231Y47928963D01*
X3925398Y48118837D01*
X4167063Y48360502D01*
X4356937Y48644669D01*
X4381803Y48704702D01*
X34899303Y48704702D01*
X35712400Y47891605D01*
X36525497Y48704702D01*
X41503303Y48704702D01*
X42316400Y47891605D01*
X43129497Y48704702D01*
X43057914Y48948671D01*
X42802404Y49069571D01*
X42528216Y49138300D01*
X42245888Y49152217D01*
X41966270Y49110787D01*
X41700108Y49015603D01*
X41574886Y48948671D01*
X41503303Y48704702D01*
X36525497Y48704702D01*
X36453914Y48948671D01*
X36198404Y49069571D01*
X35924216Y49138300D01*
X35641888Y49152217D01*
X35362270Y49110787D01*
X35096108Y49015603D01*
X34970886Y48948671D01*
X34899303Y48704702D01*
X4381803Y48704702D01*
X4487725Y48960419D01*
X4554400Y49295617D01*
X4554400Y49446883D01*
X56964400Y49446883D01*
X56964400Y49105117D01*
X57031075Y48769919D01*
X57161863Y48454169D01*
X57351737Y48170002D01*
X57593402Y47928337D01*
X57877569Y47738463D01*
X58193319Y47607675D01*
X58528517Y47541000D01*
X58870283Y47541000D01*
X59205481Y47607675D01*
X59521231Y47738463D01*
X59805398Y47928337D01*
X60047063Y48170002D01*
X60236937Y48454169D01*
X60367725Y48769919D01*
X60434400Y49105117D01*
X60434400Y49446883D01*
X60367725Y49782081D01*
X60236937Y50097831D01*
X60047063Y50381998D01*
X59805398Y50623663D01*
X59521231Y50813537D01*
X59205481Y50944325D01*
X58870283Y51011000D01*
X58528517Y51011000D01*
X58193319Y50944325D01*
X57877569Y50813537D01*
X57593402Y50623663D01*
X57351737Y50381998D01*
X57161863Y50097831D01*
X57031075Y49782081D01*
X56964400Y49446883D01*
X4554400Y49446883D01*
X4554400Y49637383D01*
X4487725Y49972581D01*
X4356937Y50288331D01*
X4167063Y50572498D01*
X3925398Y50814163D01*
X3641231Y51004037D01*
X3325481Y51134825D01*
X2990283Y51201500D01*
X2648517Y51201500D01*
X2313319Y51134825D01*
X1997569Y51004037D01*
X1713402Y50814163D01*
X1471737Y50572498D01*
X1281863Y50288331D01*
X1151075Y49972581D01*
X1084400Y49637383D01*
X215900Y49637383D01*
X215900Y51190766D01*
X233276Y51367189D01*
X282922Y51530850D01*
X363538Y51681672D01*
X472030Y51813870D01*
X604228Y51922362D01*
X755050Y52002978D01*
X918711Y52052624D01*
X1095134Y52070000D01*
X60614166Y52070000D01*
X60790589Y52052624D01*
X60790589Y52052624D01*
G37*
X60790589Y52052624D02*
X60954250Y52002978D01*
X61105072Y51922362D01*
X61237270Y51813870D01*
X61345762Y51681672D01*
X61426378Y51530850D01*
X61476024Y51367189D01*
X61493400Y51190766D01*
X61493400Y1069734D01*
X61476024Y893311D01*
X61426378Y729650D01*
X61345762Y578828D01*
X61237270Y446630D01*
X61105072Y338138D01*
X60954250Y257522D01*
X60790589Y207876D01*
X60614166Y190500D01*
X1095134Y190500D01*
X918711Y207876D01*
X755050Y257522D01*
X604228Y338138D01*
X472030Y446630D01*
X363538Y578828D01*
X282922Y729650D01*
X233276Y893311D01*
X215900Y1069734D01*
X215900Y2901383D01*
X1020900Y2901383D01*
X1020900Y2559617D01*
X1087575Y2224419D01*
X1218363Y1908669D01*
X1408237Y1624502D01*
X1649902Y1382837D01*
X1934069Y1192963D01*
X2249819Y1062175D01*
X2585017Y995500D01*
X2926783Y995500D01*
X3261981Y1062175D01*
X3577731Y1192963D01*
X3861898Y1382837D01*
X4103563Y1624502D01*
X4293437Y1908669D01*
X4424225Y2224419D01*
X4490900Y2559617D01*
X4490900Y2774383D01*
X57345400Y2774383D01*
X57345400Y2432617D01*
X57412075Y2097419D01*
X57542863Y1781669D01*
X57732737Y1497502D01*
X57974402Y1255837D01*
X58258569Y1065963D01*
X58574319Y935175D01*
X58909517Y868500D01*
X59251283Y868500D01*
X59586481Y935175D01*
X59902231Y1065963D01*
X60186398Y1255837D01*
X60428063Y1497502D01*
X60617937Y1781669D01*
X60748725Y2097419D01*
X60815400Y2432617D01*
X60815400Y2774383D01*
X60748725Y3109581D01*
X60617937Y3425331D01*
X60428063Y3709498D01*
X60186398Y3951163D01*
X59902231Y4141037D01*
X59586481Y4271825D01*
X59251283Y4338500D01*
X58909517Y4338500D01*
X58574319Y4271825D01*
X58258569Y4141037D01*
X57974402Y3951163D01*
X57732737Y3709498D01*
X57542863Y3425331D01*
X57412075Y3109581D01*
X57345400Y2774383D01*
X4490900Y2774383D01*
X4490900Y2901383D01*
X4424225Y3236581D01*
X4293437Y3552331D01*
X4103563Y3836498D01*
X3861898Y4078163D01*
X3577731Y4268037D01*
X3261981Y4398825D01*
X2926783Y4465500D01*
X2585017Y4465500D01*
X2249819Y4398825D01*
X1934069Y4268037D01*
X1649902Y4078163D01*
X1408237Y3836498D01*
X1218363Y3552331D01*
X1087575Y3236581D01*
X1020900Y2901383D01*
X215900Y2901383D01*
X215900Y13836001D01*
X4185490Y13836001D01*
X4193402Y13755672D01*
X4193401Y7104319D01*
X4185490Y7023999D01*
X4193401Y6943680D01*
X4193401Y6943678D01*
X4217058Y6703484D01*
X4310549Y6395285D01*
X4462370Y6111248D01*
X4666687Y5862285D01*
X4729088Y5811074D01*
X5035475Y5504687D01*
X5086686Y5442286D01*
X5335648Y5237969D01*
X5619685Y5086148D01*
X5927884Y4992657D01*
X6168078Y4969000D01*
X6168080Y4969000D01*
X6248399Y4961089D01*
X6328719Y4969000D01*
X9402162Y4969000D01*
X9482481Y4961089D01*
X9562800Y4969000D01*
X9562803Y4969000D01*
X9802997Y4992657D01*
X10111196Y5086148D01*
X10395233Y5237969D01*
X10644195Y5442286D01*
X10695405Y5504686D01*
X11919718Y6728998D01*
X11982114Y6780205D01*
X12186431Y7029167D01*
X12212726Y7078361D01*
X12340793Y6922311D01*
X12395555Y6877369D01*
X15157769Y4115154D01*
X15202711Y4060392D01*
X15421218Y3881068D01*
X15485063Y3846942D01*
X15851845Y3480160D01*
X15896792Y3425392D01*
X16115299Y3246068D01*
X16364592Y3112818D01*
X16635091Y3030763D01*
X16916400Y3003057D01*
X16986895Y3010000D01*
X29990408Y3010000D01*
X30060900Y3003057D01*
X30131392Y3010000D01*
X30342209Y3030764D01*
X30612708Y3112818D01*
X30862001Y3246068D01*
X31080508Y3425392D01*
X31125454Y3480159D01*
X34137256Y6491959D01*
X34192007Y6536892D01*
X34244121Y6600392D01*
X34328726Y6703484D01*
X34371332Y6755399D01*
X34375373Y6762960D01*
X40924491Y6762960D01*
X41019330Y6498119D01*
X41164015Y6256869D01*
X41352986Y6048481D01*
X41578980Y5880963D01*
X41833313Y5760754D01*
X41967361Y5720096D01*
X42189400Y5842085D01*
X42189400Y6985000D01*
X42443400Y6985000D01*
X42443400Y5842085D01*
X42665439Y5720096D01*
X42799487Y5760754D01*
X43053820Y5880963D01*
X43279814Y6048481D01*
X43468785Y6256869D01*
X43613470Y6498119D01*
X43708309Y6762960D01*
X43587024Y6985000D01*
X42443400Y6985000D01*
X42189400Y6985000D01*
X41045776Y6985000D01*
X40924491Y6762960D01*
X34375373Y6762960D01*
X34504582Y7004692D01*
X34586636Y7275191D01*
X34592890Y7338691D01*
X34604940Y7461040D01*
X40924491Y7461040D01*
X41045776Y7239000D01*
X42189400Y7239000D01*
X42189400Y8381915D01*
X42443400Y8381915D01*
X42443400Y7239000D01*
X43587024Y7239000D01*
X43708309Y7461040D01*
X43613470Y7725881D01*
X43468785Y7967131D01*
X43279814Y8175519D01*
X43140063Y8279110D01*
X46462924Y8279110D01*
X46507575Y8131901D01*
X46632759Y7869080D01*
X46806812Y7635731D01*
X47023045Y7440822D01*
X47273148Y7291843D01*
X47547509Y7194519D01*
X47777400Y7315186D01*
X47777400Y8509000D01*
X48031400Y8509000D01*
X48031400Y7315186D01*
X48261291Y7194519D01*
X48535652Y7291843D01*
X48785755Y7440822D01*
X49001988Y7635731D01*
X49176041Y7869080D01*
X49301225Y8131901D01*
X49345876Y8279110D01*
X49224555Y8509000D01*
X48031400Y8509000D01*
X47777400Y8509000D01*
X46584245Y8509000D01*
X46462924Y8279110D01*
X43140063Y8279110D01*
X43053820Y8343037D01*
X42799487Y8463246D01*
X42665439Y8503904D01*
X42443400Y8381915D01*
X42189400Y8381915D01*
X41967361Y8503904D01*
X41833313Y8463246D01*
X41578980Y8343037D01*
X41352986Y8175519D01*
X41164015Y7967131D01*
X41019330Y7725881D01*
X40924491Y7461040D01*
X34604940Y7461040D01*
X34614343Y7556499D01*
X34607400Y7626991D01*
X34607400Y10844000D01*
X34820328Y10844000D01*
X34832588Y10719518D01*
X34868898Y10599820D01*
X34927863Y10489506D01*
X35007215Y10392815D01*
X35103906Y10313463D01*
X35214220Y10254498D01*
X35333918Y10218188D01*
X35458400Y10205928D01*
X36422650Y10209000D01*
X36581400Y10367750D01*
X36581400Y11217000D01*
X36835400Y11217000D01*
X36835400Y10367750D01*
X36994150Y10209000D01*
X37958400Y10205928D01*
X38082882Y10218188D01*
X38202580Y10254498D01*
X38312894Y10313463D01*
X38409585Y10392815D01*
X38488937Y10489506D01*
X38547902Y10599820D01*
X38584212Y10719518D01*
X38596472Y10844000D01*
X38593400Y11058250D01*
X38434650Y11217000D01*
X36835400Y11217000D01*
X36581400Y11217000D01*
X34982150Y11217000D01*
X34823400Y11058250D01*
X34820328Y10844000D01*
X34607400Y10844000D01*
X34607400Y15909000D01*
X34826730Y15909000D01*
X34820328Y15844000D01*
X34820328Y14844000D01*
X34832588Y14719518D01*
X34868898Y14599820D01*
X34927863Y14489506D01*
X35007215Y14392815D01*
X35066696Y14344000D01*
X35007215Y14295185D01*
X34927863Y14198494D01*
X34868898Y14088180D01*
X34832588Y13968482D01*
X34820328Y13844000D01*
X34820328Y12844000D01*
X34832588Y12719518D01*
X34868898Y12599820D01*
X34927863Y12489506D01*
X35007215Y12392815D01*
X35066696Y12344000D01*
X35007215Y12295185D01*
X34927863Y12198494D01*
X34868898Y12088180D01*
X34832588Y11968482D01*
X34820328Y11844000D01*
X34823400Y11629750D01*
X34982150Y11471000D01*
X36581400Y11471000D01*
X36581400Y11491000D01*
X36835400Y11491000D01*
X36835400Y11471000D01*
X38434650Y11471000D01*
X38593400Y11629750D01*
X38596472Y11844000D01*
X38590070Y11909000D01*
X40570005Y11909000D01*
X41201763Y11277241D01*
X41401641Y11077363D01*
X41460544Y11038005D01*
X41515299Y10993069D01*
X41577773Y10959676D01*
X41636673Y10920320D01*
X41702114Y10893214D01*
X41764592Y10859818D01*
X41832386Y10839253D01*
X41897826Y10812147D01*
X41967301Y10798327D01*
X42035090Y10777764D01*
X42105584Y10770821D01*
X42175065Y10757000D01*
X42245907Y10757000D01*
X42316399Y10750057D01*
X42386891Y10757000D01*
X42457735Y10757000D01*
X42527218Y10770821D01*
X42597708Y10777764D01*
X42665494Y10798326D01*
X42734974Y10812147D01*
X42800417Y10839254D01*
X42868207Y10859818D01*
X42930682Y10893212D01*
X42996127Y10920320D01*
X43055031Y10959679D01*
X43117500Y10993069D01*
X43172251Y11038002D01*
X43231159Y11077363D01*
X43281256Y11127460D01*
X43336007Y11172393D01*
X43380940Y11227144D01*
X43431037Y11277241D01*
X43470398Y11336149D01*
X43515331Y11390900D01*
X43548721Y11453369D01*
X43588080Y11512273D01*
X43615188Y11577718D01*
X43648582Y11640193D01*
X43669146Y11707983D01*
X43696253Y11773426D01*
X43710074Y11842906D01*
X43730636Y11910692D01*
X43737579Y11981182D01*
X43751400Y12050665D01*
X43751400Y12121509D01*
X43758343Y12192001D01*
X43751400Y12262493D01*
X43751400Y12333335D01*
X43737579Y12402816D01*
X43730636Y12473310D01*
X43710073Y12541099D01*
X43696253Y12610574D01*
X43669147Y12676014D01*
X43648582Y12743808D01*
X43615186Y12806286D01*
X43588080Y12871727D01*
X43548724Y12930627D01*
X43515331Y12993101D01*
X43470395Y13047856D01*
X43431037Y13106759D01*
X43231159Y13306637D01*
X42628795Y13909000D01*
X42824505Y13909000D01*
X43982350Y12751154D01*
X44027292Y12696392D01*
X44245799Y12517068D01*
X44410838Y12428853D01*
X44495092Y12383818D01*
X44765591Y12301763D01*
X45046900Y12274057D01*
X45117395Y12281000D01*
X46910028Y12281000D01*
X46849266Y12231134D01*
X46663694Y12005014D01*
X46525801Y11747034D01*
X46440887Y11467111D01*
X46412215Y11176000D01*
X46440887Y10884889D01*
X46525801Y10604966D01*
X46663694Y10346986D01*
X46849266Y10120866D01*
X47075386Y9935294D01*
X47139923Y9900799D01*
X47023045Y9831178D01*
X46806812Y9636269D01*
X46632759Y9402920D01*
X46507575Y9140099D01*
X46462924Y8992890D01*
X46584245Y8763000D01*
X47777400Y8763000D01*
X47777400Y8783000D01*
X48031400Y8783000D01*
X48031400Y8763000D01*
X49224555Y8763000D01*
X49345876Y8992890D01*
X49301225Y9140099D01*
X49176041Y9402920D01*
X49001988Y9636269D01*
X48785755Y9831178D01*
X48668877Y9900799D01*
X48733414Y9935294D01*
X48959534Y10120866D01*
X49145106Y10346986D01*
X49282999Y10604966D01*
X49367913Y10884889D01*
X49396585Y11176000D01*
X49367913Y11467111D01*
X49282999Y11747034D01*
X49145106Y12005014D01*
X48959534Y12231134D01*
X48898772Y12281000D01*
X52109735Y12281000D01*
X52179217Y12294821D01*
X52249709Y12301764D01*
X52317497Y12322327D01*
X52386974Y12336147D01*
X52452414Y12363253D01*
X52520208Y12383818D01*
X52582688Y12417214D01*
X52648127Y12444320D01*
X52707022Y12483672D01*
X52769501Y12517068D01*
X52824263Y12562010D01*
X52883159Y12601363D01*
X52933246Y12651450D01*
X52988008Y12696392D01*
X53032950Y12751154D01*
X53083037Y12801241D01*
X53122390Y12860137D01*
X53167332Y12914899D01*
X53200728Y12977378D01*
X53240080Y13036273D01*
X53267186Y13101712D01*
X53300582Y13164192D01*
X53321147Y13231986D01*
X53348253Y13297426D01*
X53362073Y13366903D01*
X53382636Y13434691D01*
X53389579Y13505183D01*
X53403400Y13574665D01*
X53403400Y13645509D01*
X53410343Y13716000D01*
X53403400Y13786492D01*
X53403400Y13857335D01*
X53389579Y13926817D01*
X53382636Y13997309D01*
X53362073Y14065097D01*
X53348253Y14134574D01*
X53321147Y14200014D01*
X53300582Y14267808D01*
X53267186Y14330288D01*
X53240080Y14395727D01*
X53200728Y14454622D01*
X53167332Y14517101D01*
X53122390Y14571863D01*
X53083037Y14630759D01*
X53032950Y14680846D01*
X52988008Y14735608D01*
X52933246Y14780550D01*
X52892796Y14821000D01*
X53914005Y14821000D01*
X55983854Y12751149D01*
X56028792Y12696392D01*
X56215784Y12542932D01*
X56247299Y12517068D01*
X56496592Y12383818D01*
X56653744Y12336147D01*
X56767090Y12301764D01*
X57048399Y12274057D01*
X57048400Y12274057D01*
X57118892Y12281000D01*
X57329709Y12301764D01*
X57600208Y12383818D01*
X57849501Y12517068D01*
X58068008Y12696392D01*
X58247332Y12914899D01*
X58380582Y13164192D01*
X58462636Y13434691D01*
X58490343Y13716000D01*
X58490343Y13716001D01*
X58483400Y13786493D01*
X58483400Y26531674D01*
X58564832Y26630899D01*
X58698082Y26880192D01*
X58741384Y27022941D01*
X58780137Y27150691D01*
X58807843Y27432000D01*
X58800900Y27502495D01*
X58800900Y30473009D01*
X58807843Y30543500D01*
X58800900Y30613992D01*
X58800900Y31604375D01*
X58807843Y31674870D01*
X58780137Y31956179D01*
X58698082Y32226678D01*
X58592259Y32424658D01*
X58564832Y32475971D01*
X58385508Y32694478D01*
X58330746Y32739420D01*
X51942900Y39127265D01*
X51942900Y44226009D01*
X51949843Y44296501D01*
X51922136Y44577809D01*
X51886131Y44696502D01*
X51840082Y44848308D01*
X51706832Y45097601D01*
X51527508Y45316108D01*
X51472744Y45361051D01*
X51355453Y45478342D01*
X51310508Y45533108D01*
X51092001Y45712432D01*
X50842708Y45845682D01*
X50572209Y45927736D01*
X50361392Y45948500D01*
X50290900Y45955443D01*
X50220408Y45948500D01*
X48943503Y45948500D01*
X48935080Y45953002D01*
X48815382Y45989312D01*
X48690900Y46001572D01*
X46990900Y46001572D01*
X46866418Y45989312D01*
X46746720Y45953002D01*
X46738297Y45948500D01*
X43776640Y45948500D01*
X43682431Y46124752D01*
X43478114Y46373714D01*
X43229152Y46578031D01*
X43107177Y46643228D01*
X43129497Y46719298D01*
X42316400Y47532395D01*
X42302258Y47518252D01*
X42122653Y47697857D01*
X42136795Y47712000D01*
X42496005Y47712000D01*
X43309102Y46898903D01*
X43553071Y46970486D01*
X43673971Y47225996D01*
X43742700Y47500184D01*
X43756617Y47782512D01*
X43715187Y48062130D01*
X43620003Y48328292D01*
X43553071Y48453514D01*
X43309102Y48525097D01*
X42496005Y47712000D01*
X42136795Y47712000D01*
X41323698Y48525097D01*
X41079729Y48453514D01*
X40958829Y48198004D01*
X40890100Y47923816D01*
X40876183Y47641488D01*
X40917613Y47361870D01*
X41012797Y47095708D01*
X41079729Y46970486D01*
X41323696Y46898903D01*
X41271793Y46847000D01*
X36757007Y46847000D01*
X36705104Y46898903D01*
X36949071Y46970486D01*
X37069971Y47225996D01*
X37138700Y47500184D01*
X37152617Y47782512D01*
X37111187Y48062130D01*
X37016003Y48328292D01*
X36949071Y48453514D01*
X36705102Y48525097D01*
X35892005Y47712000D01*
X35906148Y47697857D01*
X35726543Y47518252D01*
X35712400Y47532395D01*
X34899303Y46719298D01*
X34919615Y46650072D01*
X34912400Y46650072D01*
X34787918Y46637812D01*
X34668220Y46601502D01*
X34557906Y46542537D01*
X34461215Y46463185D01*
X34381863Y46366494D01*
X34322898Y46256180D01*
X34286588Y46136482D01*
X34282430Y46094268D01*
X34019162Y45831000D01*
X30340472Y45831000D01*
X30340472Y46096000D01*
X30328212Y46220482D01*
X30291902Y46340180D01*
X30232937Y46450494D01*
X30153585Y46547185D01*
X30056894Y46626537D01*
X29946580Y46685502D01*
X29826882Y46721812D01*
X29702400Y46734072D01*
X27702400Y46734072D01*
X27577918Y46721812D01*
X27458220Y46685502D01*
X27347906Y46626537D01*
X27251215Y46547185D01*
X27171863Y46450494D01*
X27112898Y46340180D01*
X27076588Y46220482D01*
X27064328Y46096000D01*
X27064328Y45631000D01*
X24029146Y45631000D01*
X24040472Y45746000D01*
X24037400Y46210250D01*
X23878650Y46369000D01*
X22529400Y46369000D01*
X22529400Y46349000D01*
X22275400Y46349000D01*
X22275400Y46369000D01*
X20926150Y46369000D01*
X20767400Y46210250D01*
X20764328Y45746000D01*
X20776588Y45621518D01*
X20812898Y45501820D01*
X20871863Y45391506D01*
X20909209Y45346000D01*
X20871863Y45300494D01*
X20812898Y45190180D01*
X20776588Y45070482D01*
X20764328Y44946000D01*
X20764328Y43531000D01*
X18877639Y43531000D01*
X18129324Y44279314D01*
X18078114Y44341714D01*
X17829152Y44546031D01*
X17545115Y44697852D01*
X17236916Y44791343D01*
X16996722Y44815000D01*
X16996719Y44815000D01*
X16916400Y44822911D01*
X16836081Y44815000D01*
X14660747Y44815000D01*
X14723377Y44877630D01*
X14607104Y44993903D01*
X14851071Y45065486D01*
X14971971Y45320996D01*
X15040700Y45595184D01*
X15054617Y45877512D01*
X15013187Y46157130D01*
X14918003Y46423292D01*
X14851071Y46548514D01*
X14607102Y46620097D01*
X13794005Y45807000D01*
X13808148Y45792857D01*
X13628543Y45613252D01*
X13614400Y45627395D01*
X13600258Y45613252D01*
X13420653Y45792857D01*
X13434795Y45807000D01*
X12621698Y46620097D01*
X12377729Y46548514D01*
X12256829Y46293004D01*
X12188100Y46018816D01*
X12174183Y45736488D01*
X12215613Y45456870D01*
X12310797Y45190708D01*
X12377729Y45065486D01*
X12621696Y44993903D01*
X12505423Y44877630D01*
X12568053Y44815000D01*
X8941048Y44815000D01*
X9044041Y44953080D01*
X9169225Y45215901D01*
X9213876Y45363110D01*
X9092555Y45593000D01*
X7899400Y45593000D01*
X7899400Y45573000D01*
X7645400Y45573000D01*
X7645400Y45593000D01*
X6452245Y45593000D01*
X6330924Y45363110D01*
X6375575Y45215901D01*
X6500759Y44953080D01*
X6674812Y44719731D01*
X6758866Y44643966D01*
X6678220Y44619502D01*
X6567906Y44560537D01*
X6471215Y44481185D01*
X6391863Y44384494D01*
X6332898Y44274180D01*
X6296588Y44154482D01*
X6284328Y44030000D01*
X6284328Y43864429D01*
X6254548Y43808715D01*
X6161057Y43500516D01*
X6129489Y43180000D01*
X6161057Y42859484D01*
X6254548Y42551285D01*
X6284328Y42495571D01*
X6284328Y42330000D01*
X6296588Y42205518D01*
X6332898Y42085820D01*
X6391863Y41975506D01*
X6471215Y41878815D01*
X6567906Y41799463D01*
X6678220Y41740498D01*
X6797918Y41704188D01*
X6922400Y41691928D01*
X7087971Y41691928D01*
X7143685Y41662148D01*
X7451884Y41568657D01*
X7692078Y41545000D01*
X16239162Y41545000D01*
X16987479Y40796682D01*
X17038686Y40734286D01*
X17287648Y40529969D01*
X17571685Y40378148D01*
X17879884Y40284657D01*
X18120078Y40261000D01*
X18120080Y40261000D01*
X18200399Y40253089D01*
X18280719Y40261000D01*
X22482722Y40261000D01*
X22722916Y40284657D01*
X23031115Y40378148D01*
X23273916Y40507928D01*
X23402400Y40507928D01*
X23526882Y40520188D01*
X23646580Y40556498D01*
X23756894Y40615463D01*
X23853585Y40694815D01*
X23932937Y40791506D01*
X23991902Y40901820D01*
X24028212Y41021518D01*
X24040472Y41146000D01*
X24040472Y41846869D01*
X24045311Y41896000D01*
X24040472Y41945131D01*
X24040472Y42646000D01*
X24029146Y42761000D01*
X27064328Y42761000D01*
X27064328Y42296000D01*
X27067401Y42264803D01*
X27067400Y40376322D01*
X27067400Y40287869D01*
X24790532Y38011000D01*
X20666894Y38011000D01*
X20596402Y38017943D01*
X20525910Y38011000D01*
X20315093Y37990236D01*
X20044594Y37908182D01*
X19795301Y37774932D01*
X19576794Y37595608D01*
X19531852Y37540846D01*
X19213807Y37222801D01*
X19131332Y37377101D01*
X18952008Y37595608D01*
X18733501Y37774932D01*
X18484208Y37908182D01*
X18213709Y37990236D01*
X18002892Y38011000D01*
X16176120Y38011000D01*
X16021115Y38093852D01*
X15712916Y38187343D01*
X15472722Y38211000D01*
X14784780Y38211000D01*
X14768894Y38224037D01*
X14658580Y38283002D01*
X14538882Y38319312D01*
X14414400Y38331572D01*
X14407185Y38331572D01*
X14427497Y38400798D01*
X13614400Y39213895D01*
X12801303Y38400798D01*
X12821615Y38331572D01*
X12814400Y38331572D01*
X12689918Y38319312D01*
X12570220Y38283002D01*
X12459906Y38224037D01*
X12444020Y38211000D01*
X9376719Y38211000D01*
X9296399Y38218911D01*
X9216080Y38211000D01*
X9216078Y38211000D01*
X8975884Y38187343D01*
X8667685Y38093852D01*
X8383648Y37942031D01*
X8134686Y37737714D01*
X8083480Y37675319D01*
X5657078Y35248916D01*
X5594687Y35197713D01*
X5484396Y35063323D01*
X5390370Y34948752D01*
X5238548Y34664714D01*
X5145058Y34356516D01*
X5113489Y34036000D01*
X5145058Y33715484D01*
X5193400Y33556120D01*
X5193400Y32592321D01*
X5193401Y26173038D01*
X5193400Y26173033D01*
X5193400Y25850967D01*
X5209148Y25771797D01*
X5217058Y25691484D01*
X5240484Y25614258D01*
X5256232Y25535088D01*
X5287122Y25460512D01*
X5310549Y25383285D01*
X5348592Y25312111D01*
X5379482Y25237537D01*
X5424326Y25170423D01*
X5462370Y25099248D01*
X5513570Y25036861D01*
X5558413Y24969748D01*
X5615485Y24912676D01*
X5666687Y24850286D01*
X5729077Y24799084D01*
X5786148Y24742013D01*
X5853260Y24697170D01*
X5915649Y24645969D01*
X5986827Y24607924D01*
X6053937Y24563082D01*
X6128507Y24532194D01*
X6199686Y24494148D01*
X6276918Y24470720D01*
X6351488Y24439832D01*
X6430652Y24424085D01*
X6507885Y24400657D01*
X6588206Y24392746D01*
X6667367Y24377000D01*
X6748078Y24377000D01*
X6828400Y24369089D01*
X6908722Y24377000D01*
X6989433Y24377000D01*
X7068593Y24392746D01*
X7148916Y24400657D01*
X7226151Y24424086D01*
X7305312Y24439832D01*
X7379879Y24470719D01*
X7457115Y24494148D01*
X7528298Y24532196D01*
X7602863Y24563082D01*
X7669969Y24607921D01*
X7741152Y24645969D01*
X7803546Y24697174D01*
X7870652Y24742013D01*
X7927719Y24799080D01*
X7990114Y24850286D01*
X8011698Y24876587D01*
X10372592Y24876587D01*
X10468356Y24612186D01*
X10757971Y24471296D01*
X11069508Y24389616D01*
X11390995Y24370282D01*
X11710075Y24414039D01*
X12014488Y24519205D01*
X12188444Y24612186D01*
X12284208Y24876587D01*
X11328400Y25832395D01*
X10372592Y24876587D01*
X8011698Y24876587D01*
X8041320Y24912681D01*
X8098387Y24969748D01*
X8143226Y25036854D01*
X8194431Y25099248D01*
X8232479Y25170431D01*
X8277318Y25237537D01*
X8308204Y25312102D01*
X8346252Y25383285D01*
X8369681Y25460521D01*
X8400568Y25535088D01*
X8416314Y25614249D01*
X8439743Y25691484D01*
X8447654Y25771807D01*
X8463400Y25850967D01*
X8463400Y25949405D01*
X9686682Y25949405D01*
X9730439Y25630325D01*
X9835605Y25325912D01*
X9928586Y25151956D01*
X10192987Y25056192D01*
X11148795Y26012000D01*
X11508005Y26012000D01*
X12463813Y25056192D01*
X12728214Y25151956D01*
X12869104Y25441571D01*
X12950784Y25753108D01*
X12970118Y26074595D01*
X12926361Y26393675D01*
X12821195Y26698088D01*
X12728214Y26872044D01*
X12463813Y26967808D01*
X11508005Y26012000D01*
X11148795Y26012000D01*
X10192987Y26967808D01*
X9928586Y26872044D01*
X9787696Y26582429D01*
X9706016Y26270892D01*
X9686682Y25949405D01*
X8463400Y25949405D01*
X8463400Y27147413D01*
X10372592Y27147413D01*
X11328400Y26191605D01*
X12284208Y27147413D01*
X12188444Y27411814D01*
X11898829Y27552704D01*
X11587292Y27634384D01*
X11265805Y27653718D01*
X10946725Y27609961D01*
X10642312Y27504795D01*
X10468356Y27411814D01*
X10372592Y27147413D01*
X8463400Y27147413D01*
X8463400Y31376587D01*
X10372592Y31376587D01*
X10468356Y31112186D01*
X10757971Y30971296D01*
X11069508Y30889616D01*
X11390995Y30870282D01*
X11710075Y30914039D01*
X12014488Y31019205D01*
X12188444Y31112186D01*
X12284208Y31376587D01*
X11328400Y32332395D01*
X10372592Y31376587D01*
X8463400Y31376587D01*
X8463400Y32449405D01*
X9686682Y32449405D01*
X9730439Y32130325D01*
X9835605Y31825912D01*
X9928586Y31651956D01*
X10192987Y31556192D01*
X11148795Y32512000D01*
X11508005Y32512000D01*
X12463813Y31556192D01*
X12728214Y31651956D01*
X12869104Y31941571D01*
X12950784Y32253108D01*
X12970118Y32574595D01*
X12926361Y32893675D01*
X12821195Y33198088D01*
X12728214Y33372044D01*
X12463813Y33467808D01*
X11508005Y32512000D01*
X11148795Y32512000D01*
X10192987Y33467808D01*
X9928586Y33372044D01*
X9787696Y33082429D01*
X9706016Y32770892D01*
X9686682Y32449405D01*
X8463400Y32449405D01*
X8463400Y33430762D01*
X8680051Y33647413D01*
X10372592Y33647413D01*
X11328400Y32691605D01*
X12284208Y33647413D01*
X12188444Y33911814D01*
X11898829Y34052704D01*
X11587292Y34134384D01*
X11265805Y34153718D01*
X10946725Y34109961D01*
X10642312Y34004795D01*
X10468356Y33911814D01*
X10372592Y33647413D01*
X8680051Y33647413D01*
X9973639Y34941000D01*
X13957401Y34941000D01*
X13957400Y28564990D01*
X13950457Y28494498D01*
X13962989Y28367264D01*
X13978164Y28213190D01*
X14060218Y27942691D01*
X14193468Y27693398D01*
X14372792Y27474891D01*
X14427555Y27429948D01*
X16933837Y24923665D01*
X16973718Y24792192D01*
X17106968Y24542899D01*
X17286292Y24324392D01*
X17465845Y24177037D01*
X17504799Y24145068D01*
X17754092Y24011818D01*
X18024591Y23929764D01*
X18305900Y23902057D01*
X18376392Y23909000D01*
X19626730Y23909000D01*
X19620328Y23844000D01*
X19620328Y22844000D01*
X19632588Y22719518D01*
X19668898Y22599820D01*
X19727863Y22489506D01*
X19807215Y22392815D01*
X19866696Y22344000D01*
X19807215Y22295185D01*
X19727863Y22198494D01*
X19668898Y22088180D01*
X19632588Y21968482D01*
X19620328Y21844000D01*
X19620328Y20844000D01*
X19632588Y20719518D01*
X19668898Y20599820D01*
X19727863Y20489506D01*
X19807215Y20392815D01*
X19866696Y20344000D01*
X19807215Y20295185D01*
X19727863Y20198494D01*
X19668898Y20088180D01*
X19632588Y19968482D01*
X19620328Y19844000D01*
X19620328Y18844000D01*
X19626730Y18779000D01*
X18011395Y18779000D01*
X17940900Y18785943D01*
X17659591Y18758237D01*
X17389092Y18676182D01*
X17139799Y18542932D01*
X16921292Y18363608D01*
X16876350Y18308846D01*
X16007551Y17440047D01*
X15797799Y17327932D01*
X15579292Y17148608D01*
X15399968Y16930101D01*
X15287853Y16720349D01*
X12881907Y14314402D01*
X12950784Y14577108D01*
X12970118Y14898595D01*
X12926361Y15217675D01*
X12821195Y15522088D01*
X12728214Y15696044D01*
X12463813Y15791808D01*
X11508005Y14836000D01*
X11522148Y14821857D01*
X11342543Y14642252D01*
X11328400Y14656395D01*
X11314258Y14642252D01*
X11134653Y14821857D01*
X11148795Y14836000D01*
X10192987Y15791808D01*
X9928586Y15696044D01*
X9787696Y15406429D01*
X9706016Y15094892D01*
X9686682Y14773405D01*
X9730439Y14454325D01*
X9835605Y14149912D01*
X9928586Y13975956D01*
X10192985Y13880193D01*
X10077317Y13764525D01*
X10151342Y13690500D01*
X9874891Y13690500D01*
X9804399Y13697443D01*
X9523090Y13669736D01*
X9443224Y13645509D01*
X9252592Y13587682D01*
X9003299Y13454432D01*
X8784792Y13275108D01*
X8739855Y13220352D01*
X7463401Y11943896D01*
X7463401Y13158763D01*
X7870649Y13566011D01*
X7870652Y13566013D01*
X7927720Y13623081D01*
X7990114Y13674286D01*
X8041320Y13736681D01*
X8098387Y13793748D01*
X8143226Y13860854D01*
X8194431Y13923248D01*
X8232479Y13994431D01*
X8277318Y14061537D01*
X8308204Y14136102D01*
X8346252Y14207285D01*
X8369681Y14284521D01*
X8400568Y14359088D01*
X8416314Y14438249D01*
X8439743Y14515484D01*
X8447654Y14595807D01*
X8463400Y14674967D01*
X8463400Y14755680D01*
X8471311Y14835999D01*
X8463400Y14916319D01*
X8463400Y15971413D01*
X10372592Y15971413D01*
X11328400Y15015605D01*
X12284208Y15971413D01*
X12188444Y16235814D01*
X11898829Y16376704D01*
X11587292Y16458384D01*
X11265805Y16477718D01*
X10946725Y16433961D01*
X10642312Y16328795D01*
X10468356Y16235814D01*
X10372592Y15971413D01*
X8463400Y15971413D01*
X8463400Y20200587D01*
X10372592Y20200587D01*
X10468356Y19936186D01*
X10757971Y19795296D01*
X11069508Y19713616D01*
X11390995Y19694282D01*
X11710075Y19738039D01*
X12014488Y19843205D01*
X12188444Y19936186D01*
X12284208Y20200587D01*
X11328400Y21156395D01*
X10372592Y20200587D01*
X8463400Y20200587D01*
X8463400Y21273405D01*
X9686682Y21273405D01*
X9730439Y20954325D01*
X9835605Y20649912D01*
X9928586Y20475956D01*
X10192987Y20380192D01*
X11148795Y21336000D01*
X11508005Y21336000D01*
X12463813Y20380192D01*
X12728214Y20475956D01*
X12869104Y20765571D01*
X12950784Y21077108D01*
X12970118Y21398595D01*
X12926361Y21717675D01*
X12821195Y22022088D01*
X12728214Y22196044D01*
X12463813Y22291808D01*
X11508005Y21336000D01*
X11148795Y21336000D01*
X10192987Y22291808D01*
X9928586Y22196044D01*
X9787696Y21906429D01*
X9706016Y21594892D01*
X9686682Y21273405D01*
X8463400Y21273405D01*
X8463400Y21497033D01*
X8447654Y21576193D01*
X8439743Y21656516D01*
X8416314Y21733751D01*
X8400568Y21812912D01*
X8369681Y21887479D01*
X8346252Y21964715D01*
X8308204Y22035898D01*
X8277318Y22110463D01*
X8232479Y22177569D01*
X8194431Y22248752D01*
X8143226Y22311146D01*
X8098387Y22378252D01*
X8041320Y22435319D01*
X8011699Y22471413D01*
X10372592Y22471413D01*
X11328400Y21515605D01*
X12284208Y22471413D01*
X12188444Y22735814D01*
X11898829Y22876704D01*
X11587292Y22958384D01*
X11265805Y22977718D01*
X10946725Y22933961D01*
X10642312Y22828795D01*
X10468356Y22735814D01*
X10372592Y22471413D01*
X8011699Y22471413D01*
X7990114Y22497714D01*
X7927719Y22548920D01*
X7870652Y22605987D01*
X7803546Y22650826D01*
X7741152Y22702031D01*
X7669969Y22740079D01*
X7602863Y22784918D01*
X7528298Y22815804D01*
X7457115Y22853852D01*
X7379879Y22877281D01*
X7305312Y22908168D01*
X7226151Y22923914D01*
X7148916Y22947343D01*
X7068593Y22955254D01*
X6989433Y22971000D01*
X6908722Y22971000D01*
X6828400Y22978911D01*
X6748078Y22971000D01*
X6667367Y22971000D01*
X6588206Y22955254D01*
X6507885Y22947343D01*
X6430652Y22923915D01*
X6351488Y22908168D01*
X6276918Y22877280D01*
X6199686Y22853852D01*
X6128507Y22815806D01*
X6053937Y22784918D01*
X5986827Y22740076D01*
X5915649Y22702031D01*
X5853260Y22650830D01*
X5786148Y22605987D01*
X5729077Y22548916D01*
X5666687Y22497714D01*
X5615485Y22435324D01*
X5558413Y22378252D01*
X5513570Y22311139D01*
X5462370Y22248752D01*
X5424326Y22177577D01*
X5379482Y22110463D01*
X5348592Y22035889D01*
X5310549Y21964715D01*
X5287122Y21887488D01*
X5256232Y21812912D01*
X5240484Y21733742D01*
X5217058Y21656516D01*
X5209148Y21576203D01*
X5193400Y21497033D01*
X5193400Y21174967D01*
X5193401Y21174962D01*
X5193400Y15513238D01*
X4729083Y15048921D01*
X4666688Y14997715D01*
X4468055Y14755679D01*
X4462371Y14748753D01*
X4310549Y14464715D01*
X4217059Y14156517D01*
X4185490Y13836001D01*
X215900Y13836001D01*
X215900Y39322988D01*
X12174183Y39322988D01*
X12215613Y39043370D01*
X12310797Y38777208D01*
X12377729Y38651986D01*
X12621698Y38580403D01*
X13434795Y39393500D01*
X13794005Y39393500D01*
X14607102Y38580403D01*
X14851071Y38651986D01*
X14971971Y38907496D01*
X15040700Y39181684D01*
X15054617Y39464012D01*
X15013187Y39743630D01*
X14918003Y40009792D01*
X14851071Y40135014D01*
X14607102Y40206597D01*
X13794005Y39393500D01*
X13434795Y39393500D01*
X12621698Y40206597D01*
X12377729Y40135014D01*
X12256829Y39879504D01*
X12188100Y39605316D01*
X12174183Y39322988D01*
X215900Y39322988D01*
X215900Y40386202D01*
X12801303Y40386202D01*
X13614400Y39573105D01*
X14427497Y40386202D01*
X14355914Y40630171D01*
X14100404Y40751071D01*
X13826216Y40819800D01*
X13543888Y40833717D01*
X13264270Y40792287D01*
X12998108Y40697103D01*
X12872886Y40630171D01*
X12801303Y40386202D01*
X215900Y40386202D01*
X215900Y46076890D01*
X6330924Y46076890D01*
X6452245Y45847000D01*
X7645400Y45847000D01*
X7645400Y47040814D01*
X7899400Y47040814D01*
X7899400Y45847000D01*
X9092555Y45847000D01*
X9213876Y46076890D01*
X9169225Y46224099D01*
X9044041Y46486920D01*
X8869988Y46720269D01*
X8781865Y46799702D01*
X12801303Y46799702D01*
X13614400Y45986605D01*
X14427497Y46799702D01*
X14355914Y47043671D01*
X14100404Y47164571D01*
X13826216Y47233300D01*
X13568577Y47246000D01*
X20764328Y47246000D01*
X20767400Y46781750D01*
X20926150Y46623000D01*
X22275400Y46623000D01*
X22275400Y47722250D01*
X22529400Y47722250D01*
X22529400Y46623000D01*
X23878650Y46623000D01*
X24037400Y46781750D01*
X24040472Y47246000D01*
X24028212Y47370482D01*
X23991902Y47490180D01*
X23932937Y47600494D01*
X23899295Y47641488D01*
X34272183Y47641488D01*
X34313613Y47361870D01*
X34408797Y47095708D01*
X34475729Y46970486D01*
X34719698Y46898903D01*
X35532795Y47712000D01*
X34719698Y48525097D01*
X34475729Y48453514D01*
X34354829Y48198004D01*
X34286100Y47923816D01*
X34272183Y47641488D01*
X23899295Y47641488D01*
X23853585Y47697185D01*
X23756894Y47776537D01*
X23646580Y47835502D01*
X23526882Y47871812D01*
X23402400Y47884072D01*
X22688150Y47881000D01*
X22529400Y47722250D01*
X22275400Y47722250D01*
X22116650Y47881000D01*
X21402400Y47884072D01*
X21277918Y47871812D01*
X21158220Y47835502D01*
X21047906Y47776537D01*
X20951215Y47697185D01*
X20871863Y47600494D01*
X20812898Y47490180D01*
X20776588Y47370482D01*
X20764328Y47246000D01*
X13568577Y47246000D01*
X13543888Y47247217D01*
X13264270Y47205787D01*
X12998108Y47110603D01*
X12872886Y47043671D01*
X12801303Y46799702D01*
X8781865Y46799702D01*
X8653755Y46915178D01*
X8403652Y47064157D01*
X8129291Y47161481D01*
X7899400Y47040814D01*
X7645400Y47040814D01*
X7415509Y47161481D01*
X7141148Y47064157D01*
X6891045Y46915178D01*
X6674812Y46720269D01*
X6500759Y46486920D01*
X6375575Y46224099D01*
X6330924Y46076890D01*
X215900Y46076890D01*
X215900Y49637383D01*
X1084400Y49637383D01*
X1084400Y49295617D01*
X1151075Y48960419D01*
X1281863Y48644669D01*
X1471737Y48360502D01*
X1713402Y48118837D01*
X1997569Y47928963D01*
X2313319Y47798175D01*
X2648517Y47731500D01*
X2990283Y47731500D01*
X3325481Y47798175D01*
X3641231Y47928963D01*
X3925398Y48118837D01*
X4167063Y48360502D01*
X4356937Y48644669D01*
X4381803Y48704702D01*
X34899303Y48704702D01*
X35712400Y47891605D01*
X36525497Y48704702D01*
X41503303Y48704702D01*
X42316400Y47891605D01*
X43129497Y48704702D01*
X43057914Y48948671D01*
X42802404Y49069571D01*
X42528216Y49138300D01*
X42245888Y49152217D01*
X41966270Y49110787D01*
X41700108Y49015603D01*
X41574886Y48948671D01*
X41503303Y48704702D01*
X36525497Y48704702D01*
X36453914Y48948671D01*
X36198404Y49069571D01*
X35924216Y49138300D01*
X35641888Y49152217D01*
X35362270Y49110787D01*
X35096108Y49015603D01*
X34970886Y48948671D01*
X34899303Y48704702D01*
X4381803Y48704702D01*
X4487725Y48960419D01*
X4554400Y49295617D01*
X4554400Y49446883D01*
X56964400Y49446883D01*
X56964400Y49105117D01*
X57031075Y48769919D01*
X57161863Y48454169D01*
X57351737Y48170002D01*
X57593402Y47928337D01*
X57877569Y47738463D01*
X58193319Y47607675D01*
X58528517Y47541000D01*
X58870283Y47541000D01*
X59205481Y47607675D01*
X59521231Y47738463D01*
X59805398Y47928337D01*
X60047063Y48170002D01*
X60236937Y48454169D01*
X60367725Y48769919D01*
X60434400Y49105117D01*
X60434400Y49446883D01*
X60367725Y49782081D01*
X60236937Y50097831D01*
X60047063Y50381998D01*
X59805398Y50623663D01*
X59521231Y50813537D01*
X59205481Y50944325D01*
X58870283Y51011000D01*
X58528517Y51011000D01*
X58193319Y50944325D01*
X57877569Y50813537D01*
X57593402Y50623663D01*
X57351737Y50381998D01*
X57161863Y50097831D01*
X57031075Y49782081D01*
X56964400Y49446883D01*
X4554400Y49446883D01*
X4554400Y49637383D01*
X4487725Y49972581D01*
X4356937Y50288331D01*
X4167063Y50572498D01*
X3925398Y50814163D01*
X3641231Y51004037D01*
X3325481Y51134825D01*
X2990283Y51201500D01*
X2648517Y51201500D01*
X2313319Y51134825D01*
X1997569Y51004037D01*
X1713402Y50814163D01*
X1471737Y50572498D01*
X1281863Y50288331D01*
X1151075Y49972581D01*
X1084400Y49637383D01*
X215900Y49637383D01*
X215900Y51190766D01*
X233276Y51367189D01*
X282922Y51530850D01*
X363538Y51681672D01*
X472030Y51813870D01*
X604228Y51922362D01*
X755050Y52002978D01*
X918711Y52052624D01*
X1095134Y52070000D01*
X60614166Y52070000D01*
X60790589Y52052624D01*
G36*
X49065957Y38532870D02*
G01*
X49072900Y38462379D01*
X49093664Y38251562D01*
X49175718Y37981063D01*
X49308968Y37731770D01*
X49488292Y37513263D01*
X49543055Y37468320D01*
X55930900Y31080474D01*
X55930900Y30613992D01*
X55923957Y30543500D01*
X55930901Y30472998D01*
X55930900Y28014825D01*
X55849469Y27915601D01*
X55813879Y27849017D01*
X55716218Y27666307D01*
X55634164Y27395808D01*
X55606457Y27114500D01*
X55613401Y27043998D01*
X55613400Y17180395D01*
X55572954Y17220841D01*
X55528008Y17275608D01*
X55309501Y17454932D01*
X55060208Y17588182D01*
X54789709Y17670236D01*
X54578892Y17691000D01*
X54508400Y17697943D01*
X54437908Y17691000D01*
X49339400Y17691000D01*
X49339400Y21693897D01*
X49343902Y21702320D01*
X49380212Y21822018D01*
X49392472Y21946500D01*
X49392472Y23646500D01*
X49380212Y23770982D01*
X49343902Y23890680D01*
X49284937Y24000994D01*
X49205585Y24097685D01*
X49108894Y24177037D01*
X48998580Y24236002D01*
X48917934Y24260466D01*
X49001988Y24336231D01*
X49176041Y24569580D01*
X49301225Y24832401D01*
X49345876Y24979610D01*
X49224555Y25209500D01*
X48031400Y25209500D01*
X48031400Y25189500D01*
X47777400Y25189500D01*
X47777400Y25209500D01*
X46584245Y25209500D01*
X46462924Y24979610D01*
X46507575Y24832401D01*
X46632759Y24569580D01*
X46806812Y24336231D01*
X46890866Y24260466D01*
X46810220Y24236002D01*
X46699906Y24177037D01*
X46603215Y24097685D01*
X46523863Y24000994D01*
X46464898Y23890680D01*
X46428588Y23770982D01*
X46416328Y23646500D01*
X46416328Y22184579D01*
X46185202Y22339012D01*
X45796656Y22499953D01*
X45384179Y22582000D01*
X44963621Y22582000D01*
X44812731Y22551986D01*
X44808890Y22590985D01*
X44808890Y25990095D01*
X45260296Y26441500D01*
X46923001Y26441500D01*
X46806812Y26336769D01*
X46632759Y26103420D01*
X46507575Y25840599D01*
X46462924Y25693390D01*
X46584245Y25463500D01*
X47777400Y25463500D01*
X47777400Y25483500D01*
X48031400Y25483500D01*
X48031400Y25463500D01*
X49224555Y25463500D01*
X49345876Y25693390D01*
X49301225Y25840599D01*
X49176041Y26103420D01*
X49001988Y26336769D01*
X48885799Y26441500D01*
X51247004Y26441500D01*
X51371141Y26317363D01*
X51430049Y26278002D01*
X51484800Y26233069D01*
X51547269Y26199679D01*
X51606173Y26160320D01*
X51671618Y26133212D01*
X51734093Y26099818D01*
X51801883Y26079254D01*
X51867326Y26052147D01*
X51936804Y26038327D01*
X52004591Y26017764D01*
X52075083Y26010821D01*
X52144565Y25997000D01*
X52215408Y25997000D01*
X52285900Y25990057D01*
X52356392Y25997000D01*
X52427235Y25997000D01*
X52496717Y26010821D01*
X52567209Y26017764D01*
X52634996Y26038327D01*
X52704474Y26052147D01*
X52769917Y26079254D01*
X52837707Y26099818D01*
X52900182Y26133212D01*
X52965627Y26160320D01*
X53024531Y26199679D01*
X53087000Y26233069D01*
X53141751Y26278002D01*
X53200659Y26317363D01*
X53250756Y26367460D01*
X53305507Y26412393D01*
X53350440Y26467144D01*
X53400537Y26517241D01*
X53439898Y26576149D01*
X53484831Y26630900D01*
X53518221Y26693369D01*
X53557580Y26752273D01*
X53584688Y26817718D01*
X53618082Y26880193D01*
X53638646Y26947983D01*
X53665753Y27013426D01*
X53679573Y27082904D01*
X53700136Y27150691D01*
X53707079Y27221183D01*
X53720900Y27290665D01*
X53720900Y27361509D01*
X53727843Y27432000D01*
X53720900Y27502492D01*
X53720900Y27573335D01*
X53707079Y27642817D01*
X53700136Y27713309D01*
X53679573Y27781096D01*
X53665753Y27850574D01*
X53638646Y27916017D01*
X53618082Y27983807D01*
X53584688Y28046282D01*
X53557580Y28111727D01*
X53518221Y28170631D01*
X53484831Y28233100D01*
X53439898Y28287851D01*
X53400537Y28346759D01*
X53200659Y28546637D01*
X53200656Y28546639D01*
X52905955Y28841340D01*
X52861008Y28896108D01*
X52653003Y29066813D01*
X52710708Y29084318D01*
X52960001Y29217568D01*
X53178508Y29396892D01*
X53223450Y29451654D01*
X53400537Y29628741D01*
X53439898Y29687649D01*
X53484831Y29742400D01*
X53518221Y29804869D01*
X53557580Y29863773D01*
X53584688Y29929218D01*
X53618082Y29991693D01*
X53638646Y30059483D01*
X53665753Y30124926D01*
X53679573Y30194404D01*
X53700136Y30262191D01*
X53707079Y30332683D01*
X53720900Y30402165D01*
X53720900Y30473009D01*
X53727843Y30543499D01*
X53720900Y30613992D01*
X53720900Y30684835D01*
X53707079Y30754318D01*
X53700136Y30824808D01*
X53679574Y30892594D01*
X53665753Y30962074D01*
X53638646Y31027517D01*
X53618082Y31095307D01*
X53584688Y31157782D01*
X53557580Y31223227D01*
X53518221Y31282131D01*
X53484831Y31344600D01*
X53439898Y31399351D01*
X53400537Y31458259D01*
X53350440Y31508356D01*
X53305507Y31563107D01*
X53250756Y31608040D01*
X53200659Y31658137D01*
X53141751Y31697498D01*
X53087000Y31742431D01*
X53024531Y31775821D01*
X52965627Y31815180D01*
X52900182Y31842288D01*
X52837707Y31875682D01*
X52769917Y31896246D01*
X52704474Y31923353D01*
X52634994Y31937174D01*
X52567208Y31957736D01*
X52496718Y31964679D01*
X52427235Y31978500D01*
X52356391Y31978500D01*
X52285899Y31985443D01*
X52215407Y31978500D01*
X52144565Y31978500D01*
X52075083Y31964679D01*
X52004591Y31957736D01*
X51936804Y31937173D01*
X51867326Y31923353D01*
X51801883Y31896246D01*
X51734093Y31875682D01*
X51688852Y31851500D01*
X48289505Y31851500D01*
X48195511Y31880013D01*
X47977350Y31901500D01*
X47831450Y31901500D01*
X47808442Y31899234D01*
X47494320Y32213356D01*
X47494320Y32529239D01*
X47412273Y32941716D01*
X47251332Y33330262D01*
X47017683Y33679943D01*
X46720303Y33977323D01*
X46370622Y34210972D01*
X45982076Y34371913D01*
X45569599Y34453960D01*
X45149041Y34453960D01*
X44736564Y34371913D01*
X44348018Y34210972D01*
X43998337Y33977323D01*
X43700957Y33679943D01*
X43467308Y33330262D01*
X43306367Y32941716D01*
X43224320Y32529239D01*
X43224320Y32108681D01*
X43306367Y31696204D01*
X43467308Y31307658D01*
X43700957Y30957977D01*
X43998337Y30660597D01*
X44348018Y30426948D01*
X44736564Y30266007D01*
X45149041Y30183960D01*
X45464924Y30183960D01*
X46197230Y29451654D01*
X46242172Y29396892D01*
X46346222Y29311500D01*
X44736391Y29311500D01*
X44665899Y29318443D01*
X44384590Y29290736D01*
X44122782Y29211318D01*
X44114092Y29208682D01*
X43864799Y29075432D01*
X43646292Y28896108D01*
X43601350Y28841346D01*
X43008881Y28248877D01*
X43008881Y33774167D01*
X45771324Y36536610D01*
X46399424Y36536610D01*
X46444075Y36389401D01*
X46569259Y36126580D01*
X46743312Y35893231D01*
X46959545Y35698322D01*
X47209648Y35549343D01*
X47484009Y35452019D01*
X47713900Y35572686D01*
X47713900Y36766500D01*
X47967900Y36766500D01*
X47967900Y35572686D01*
X48197791Y35452019D01*
X48472152Y35549343D01*
X48722255Y35698322D01*
X48938488Y35893231D01*
X49112541Y36126580D01*
X49237725Y36389401D01*
X49282376Y36536610D01*
X49161055Y36766500D01*
X47967900Y36766500D01*
X47713900Y36766500D01*
X46520745Y36766500D01*
X46399424Y36536610D01*
X45771324Y36536610D01*
X46429021Y37194306D01*
X46520745Y37020500D01*
X47713900Y37020500D01*
X47713900Y37040500D01*
X47967900Y37040500D01*
X47967900Y37020500D01*
X49161055Y37020500D01*
X49282376Y37250390D01*
X49237725Y37397599D01*
X49112541Y37660420D01*
X48938488Y37893769D01*
X48722255Y38088678D01*
X48605377Y38158299D01*
X48669914Y38192794D01*
X48896034Y38378366D01*
X49071838Y38592584D01*
X49065957Y38532870D01*
X49065957Y38532870D01*
G37*
X49065957Y38532870D02*
X49072900Y38462379D01*
X49093664Y38251562D01*
X49175718Y37981063D01*
X49308968Y37731770D01*
X49488292Y37513263D01*
X49543055Y37468320D01*
X55930900Y31080474D01*
X55930900Y30613992D01*
X55923957Y30543500D01*
X55930901Y30472998D01*
X55930900Y28014825D01*
X55849469Y27915601D01*
X55813879Y27849017D01*
X55716218Y27666307D01*
X55634164Y27395808D01*
X55606457Y27114500D01*
X55613401Y27043998D01*
X55613400Y17180395D01*
X55572954Y17220841D01*
X55528008Y17275608D01*
X55309501Y17454932D01*
X55060208Y17588182D01*
X54789709Y17670236D01*
X54578892Y17691000D01*
X54508400Y17697943D01*
X54437908Y17691000D01*
X49339400Y17691000D01*
X49339400Y21693897D01*
X49343902Y21702320D01*
X49380212Y21822018D01*
X49392472Y21946500D01*
X49392472Y23646500D01*
X49380212Y23770982D01*
X49343902Y23890680D01*
X49284937Y24000994D01*
X49205585Y24097685D01*
X49108894Y24177037D01*
X48998580Y24236002D01*
X48917934Y24260466D01*
X49001988Y24336231D01*
X49176041Y24569580D01*
X49301225Y24832401D01*
X49345876Y24979610D01*
X49224555Y25209500D01*
X48031400Y25209500D01*
X48031400Y25189500D01*
X47777400Y25189500D01*
X47777400Y25209500D01*
X46584245Y25209500D01*
X46462924Y24979610D01*
X46507575Y24832401D01*
X46632759Y24569580D01*
X46806812Y24336231D01*
X46890866Y24260466D01*
X46810220Y24236002D01*
X46699906Y24177037D01*
X46603215Y24097685D01*
X46523863Y24000994D01*
X46464898Y23890680D01*
X46428588Y23770982D01*
X46416328Y23646500D01*
X46416328Y22184579D01*
X46185202Y22339012D01*
X45796656Y22499953D01*
X45384179Y22582000D01*
X44963621Y22582000D01*
X44812731Y22551986D01*
X44808890Y22590985D01*
X44808890Y25990095D01*
X45260296Y26441500D01*
X46923001Y26441500D01*
X46806812Y26336769D01*
X46632759Y26103420D01*
X46507575Y25840599D01*
X46462924Y25693390D01*
X46584245Y25463500D01*
X47777400Y25463500D01*
X47777400Y25483500D01*
X48031400Y25483500D01*
X48031400Y25463500D01*
X49224555Y25463500D01*
X49345876Y25693390D01*
X49301225Y25840599D01*
X49176041Y26103420D01*
X49001988Y26336769D01*
X48885799Y26441500D01*
X51247004Y26441500D01*
X51371141Y26317363D01*
X51430049Y26278002D01*
X51484800Y26233069D01*
X51547269Y26199679D01*
X51606173Y26160320D01*
X51671618Y26133212D01*
X51734093Y26099818D01*
X51801883Y26079254D01*
X51867326Y26052147D01*
X51936804Y26038327D01*
X52004591Y26017764D01*
X52075083Y26010821D01*
X52144565Y25997000D01*
X52215408Y25997000D01*
X52285900Y25990057D01*
X52356392Y25997000D01*
X52427235Y25997000D01*
X52496717Y26010821D01*
X52567209Y26017764D01*
X52634996Y26038327D01*
X52704474Y26052147D01*
X52769917Y26079254D01*
X52837707Y26099818D01*
X52900182Y26133212D01*
X52965627Y26160320D01*
X53024531Y26199679D01*
X53087000Y26233069D01*
X53141751Y26278002D01*
X53200659Y26317363D01*
X53250756Y26367460D01*
X53305507Y26412393D01*
X53350440Y26467144D01*
X53400537Y26517241D01*
X53439898Y26576149D01*
X53484831Y26630900D01*
X53518221Y26693369D01*
X53557580Y26752273D01*
X53584688Y26817718D01*
X53618082Y26880193D01*
X53638646Y26947983D01*
X53665753Y27013426D01*
X53679573Y27082904D01*
X53700136Y27150691D01*
X53707079Y27221183D01*
X53720900Y27290665D01*
X53720900Y27361509D01*
X53727843Y27432000D01*
X53720900Y27502492D01*
X53720900Y27573335D01*
X53707079Y27642817D01*
X53700136Y27713309D01*
X53679573Y27781096D01*
X53665753Y27850574D01*
X53638646Y27916017D01*
X53618082Y27983807D01*
X53584688Y28046282D01*
X53557580Y28111727D01*
X53518221Y28170631D01*
X53484831Y28233100D01*
X53439898Y28287851D01*
X53400537Y28346759D01*
X53200659Y28546637D01*
X53200656Y28546639D01*
X52905955Y28841340D01*
X52861008Y28896108D01*
X52653003Y29066813D01*
X52710708Y29084318D01*
X52960001Y29217568D01*
X53178508Y29396892D01*
X53223450Y29451654D01*
X53400537Y29628741D01*
X53439898Y29687649D01*
X53484831Y29742400D01*
X53518221Y29804869D01*
X53557580Y29863773D01*
X53584688Y29929218D01*
X53618082Y29991693D01*
X53638646Y30059483D01*
X53665753Y30124926D01*
X53679573Y30194404D01*
X53700136Y30262191D01*
X53707079Y30332683D01*
X53720900Y30402165D01*
X53720900Y30473009D01*
X53727843Y30543499D01*
X53720900Y30613992D01*
X53720900Y30684835D01*
X53707079Y30754318D01*
X53700136Y30824808D01*
X53679574Y30892594D01*
X53665753Y30962074D01*
X53638646Y31027517D01*
X53618082Y31095307D01*
X53584688Y31157782D01*
X53557580Y31223227D01*
X53518221Y31282131D01*
X53484831Y31344600D01*
X53439898Y31399351D01*
X53400537Y31458259D01*
X53350440Y31508356D01*
X53305507Y31563107D01*
X53250756Y31608040D01*
X53200659Y31658137D01*
X53141751Y31697498D01*
X53087000Y31742431D01*
X53024531Y31775821D01*
X52965627Y31815180D01*
X52900182Y31842288D01*
X52837707Y31875682D01*
X52769917Y31896246D01*
X52704474Y31923353D01*
X52634994Y31937174D01*
X52567208Y31957736D01*
X52496718Y31964679D01*
X52427235Y31978500D01*
X52356391Y31978500D01*
X52285899Y31985443D01*
X52215407Y31978500D01*
X52144565Y31978500D01*
X52075083Y31964679D01*
X52004591Y31957736D01*
X51936804Y31937173D01*
X51867326Y31923353D01*
X51801883Y31896246D01*
X51734093Y31875682D01*
X51688852Y31851500D01*
X48289505Y31851500D01*
X48195511Y31880013D01*
X47977350Y31901500D01*
X47831450Y31901500D01*
X47808442Y31899234D01*
X47494320Y32213356D01*
X47494320Y32529239D01*
X47412273Y32941716D01*
X47251332Y33330262D01*
X47017683Y33679943D01*
X46720303Y33977323D01*
X46370622Y34210972D01*
X45982076Y34371913D01*
X45569599Y34453960D01*
X45149041Y34453960D01*
X44736564Y34371913D01*
X44348018Y34210972D01*
X43998337Y33977323D01*
X43700957Y33679943D01*
X43467308Y33330262D01*
X43306367Y32941716D01*
X43224320Y32529239D01*
X43224320Y32108681D01*
X43306367Y31696204D01*
X43467308Y31307658D01*
X43700957Y30957977D01*
X43998337Y30660597D01*
X44348018Y30426948D01*
X44736564Y30266007D01*
X45149041Y30183960D01*
X45464924Y30183960D01*
X46197230Y29451654D01*
X46242172Y29396892D01*
X46346222Y29311500D01*
X44736391Y29311500D01*
X44665899Y29318443D01*
X44384590Y29290736D01*
X44122782Y29211318D01*
X44114092Y29208682D01*
X43864799Y29075432D01*
X43646292Y28896108D01*
X43601350Y28841346D01*
X43008881Y28248877D01*
X43008881Y33774167D01*
X45771324Y36536610D01*
X46399424Y36536610D01*
X46444075Y36389401D01*
X46569259Y36126580D01*
X46743312Y35893231D01*
X46959545Y35698322D01*
X47209648Y35549343D01*
X47484009Y35452019D01*
X47713900Y35572686D01*
X47713900Y36766500D01*
X47967900Y36766500D01*
X47967900Y35572686D01*
X48197791Y35452019D01*
X48472152Y35549343D01*
X48722255Y35698322D01*
X48938488Y35893231D01*
X49112541Y36126580D01*
X49237725Y36389401D01*
X49282376Y36536610D01*
X49161055Y36766500D01*
X47967900Y36766500D01*
X47713900Y36766500D01*
X46520745Y36766500D01*
X46399424Y36536610D01*
X45771324Y36536610D01*
X46429021Y37194306D01*
X46520745Y37020500D01*
X47713900Y37020500D01*
X47713900Y37040500D01*
X47967900Y37040500D01*
X47967900Y37020500D01*
X49161055Y37020500D01*
X49282376Y37250390D01*
X49237725Y37397599D01*
X49112541Y37660420D01*
X48938488Y37893769D01*
X48722255Y38088678D01*
X48605377Y38158299D01*
X48669914Y38192794D01*
X48896034Y38378366D01*
X49071838Y38592584D01*
X49065957Y38532870D01*
M02*
